<svg width="678" height="678" viewBox="0 0 678 678" fill="none" xmlns="http://www.w3.org/2000/svg">
<rect width="678" height="678" fill="#242E33"/>
<rect x="328" y="486" width="226" height="25" rx="12.5" fill="#455A64"/>
<rect x="380" y="458" width="142" height="25" rx="12.5" fill="#455A64"/>
<rect x="380" y="402" width="165" height="25" rx="12.5" fill="#455A64"/>
<rect x="328" y="430" width="247" height="25" rx="12.5" fill="#455A64"/>
<rect x="328" y="374" width="238" height="25" rx="12.5" fill="#455A64"/>
<circle cx="388" cy="179" r="32" fill="#607D8B"/>
<path d="M316.5 129.5C316.5 140.822 307.322 150 296 150C284.678 150 275.5 140.822 275.5 129.5C275.5 118.178 284.678 109 296 109C307.322 109 316.5 118.178 316.5 129.5Z" fill="#607D8B"/>
<circle cx="151" cy="276" r="15" fill="#607D8B"/>
<circle cx="179" cy="415" r="22" fill="#607D8B"/>
<circle cx="136" cy="177" r="34" fill="#607D8B"/>
<circle cx="206.5" cy="215.5" r="27.5" fill="#607D8B"/>
<path d="M162.5 339.5C162.5 377.916 175.31 414.897 197.583 443.468L478.898 186.975C481.266 184.415 482.95 181.836 483 178C483.109 169.734 477.148 163.607 469 163.5C466.77 163.471 463.247 163.943 460.284 166.299L428.3 195.376C400.534 178.201 370.497 167 335 167C236.579 167 162.5 245.036 162.5 339.5Z" fill="url(#paint0_linear_84_59)"/>
<path d="M504.501 338.692C504.501 300.253 491.676 263.251 469.378 234.673L188.028 491.286H188.012C185.586 493.884 184.053 496.306 184.001 500.192C183.893 508.458 189.854 514.585 198.001 514.692C200.188 514.721 203.694 514.235 206.622 511.995L206.859 511.764L238.702 482.816C266.467 499.991 296.504 511.192 332.001 511.192C430.423 511.192 504.501 433.156 504.501 338.692Z" fill="url(#paint1_linear_84_59)"/>
<g filter="url(#filter0_d_84_59)">
<path d="M319.463 227.753L249.172 156.558C236.351 143.572 215.408 143.505 202.504 156.409C189.658 169.255 189.658 190.083 202.504 202.929L250.841 251.266L318.666 274.921L319.314 274.273C332.143 261.444 332.21 240.664 319.463 227.753Z" fill="#35C7B3"/>
<path d="M345.59 439.751L416.456 510.617C429.343 523.505 450.238 523.505 463.125 510.617C476.012 497.73 476.012 476.836 463.125 463.948L414.5 415.323L346.5 392.925C332.964 405.448 332.551 426.712 345.59 439.751Z" fill="#35C7B3"/>
</g>
<g filter="url(#filter1_d_84_59)">
<rect x="179" y="322.105" width="167" height="66" rx="33" transform="rotate(-45 179 322.105)" fill="#1AE6C8"/>
<rect x="322" y="416.087" width="167" height="66" rx="33" transform="rotate(-45 322 416.087)" fill="#1AE6C8"/>
</g>
<g filter="url(#filter2_d_84_59)">
<mask id="path-17-inside-1_84_59" fill="white">
<path d="M294.537 355.64C294.424 354.187 293.153 336.881 295.564 323C297.423 312.301 301.348 303.949 302.897 300.945L303.487 298.34C304.124 298.895 305.484 300.226 307.564 303C309.93 306.155 312.918 312.108 314.075 314.484C316.897 314.401 330.548 314.1 333.296 315.948C336.103 317.837 339.111 322.128 339.604 322.846C340.735 323.528 343.503 324.981 346.564 325C349.069 325.015 351.574 325.011 353.096 325.006C353.247 327.526 353.777 338.738 351.564 342.5C349.064 346.748 346.064 348 346.064 348C346.064 348 338.564 351 338.064 352.5C336.656 356.722 339.178 359.997 339.886 360.807L339.95 360.775C340.892 361.72 343.277 364.168 345.574 366.974C348.192 364.587 359.192 354.713 366.564 350.5C372.842 346.912 383.142 348.554 385.2 348.93L385.261 349.061C386.266 349.401 390.731 351.277 389.564 357.5C388.42 363.601 383.142 364.724 381.804 364.912L381.677 364.785C380.626 364.696 376.604 364.411 374.488 365.033C369.439 366.517 356.337 381.639 354.5 384C361.051 380.884 379.33 372.506 386.064 372C390.661 371.655 397.532 372.295 399.193 372.462L399.225 372.526C400.309 372.717 406.487 374.069 406.064 380C405.66 385.662 401.028 387.151 399.84 387.441L399.907 387.51C398.815 387.582 392.308 388 389.564 388C386.564 388 384.064 390 384.064 390C384.064 390 352.147 416 346.064 416C344.622 416 342.849 414.961 341.054 413.483C340.995 415.782 340.598 425.765 338.064 432C333.766 442.573 317.797 455.377 312.664 459.3L312.924 460.599C314.04 462.455 317.49 468.182 319.564 471.5C322.064 475.5 324.064 481 324.064 481C324.064 481 328.064 491.5 324.064 507C322.004 514.984 317.221 527.907 316.241 530.527C316.757 532.017 318.36 536.353 320.564 539.5C322.592 542.397 326.545 546.143 328.004 547.49C330.098 547.466 339.101 547.657 343.064 552.5C346.533 556.74 345.842 561.871 345.343 564H319.688C318.067 561.853 311.562 553.311 307.064 548.5C302.458 543.574 294.239 536.303 292.493 534.769C293.009 531.574 294.36 520.905 290.564 515C290.119 514.308 289.223 513.291 288.5 512.5C287.311 513.667 282.593 518.777 276.064 524C269.946 528.894 264.826 532.458 263.147 533.605L264.504 551.652C266.78 552.034 271.36 553.194 273.564 556.5C275.583 559.529 276.017 563.69 276.084 566.087L275.672 566.5H252.235C251.13 563.047 247.642 551.352 248.064 542.5C248.501 533.328 245.885 523.01 245.217 520.548C247.209 519.177 251.484 515.451 253.711 507.638C256.677 497.232 253.711 493.734 253.711 493.734C253.711 493.734 251.564 499.5 240.564 515.5C230.755 529.767 225.717 534.493 224.741 535.349L224.703 535.311C222.041 537.57 205.092 551.348 188.564 550.5C172.533 549.678 161.657 540.009 159.47 537.903L158.632 536.879C157.508 535.171 155.177 530.589 159.564 527C164.353 523.082 168.383 525.607 169.346 526.326L169.369 526.303C171.229 528.106 181.378 537.257 193.564 535C205.723 532.748 213.827 524.006 215.316 522.292L215.29 522.251C216.2 521.239 219.748 517.162 224.064 510.5C228.499 503.654 232.484 493.459 233.14 491.748L233.162 491.77C234.085 489.611 241.287 472.716 245.564 461.5C249.955 449.985 256.064 432.5 256.064 432.5C256.064 432.5 260.553 419.169 265.564 412C270.252 405.292 279.729 395.915 280.272 395.38L280.217 395.325C281.493 393.851 290.386 383.406 292.564 376C294.906 368.037 294.615 357.003 294.569 355.64H294.537Z"/>
</mask>
<path d="M294.537 355.64C294.424 354.187 293.153 336.881 295.564 323C297.423 312.301 301.348 303.949 302.897 300.945L303.487 298.34C304.124 298.895 305.484 300.226 307.564 303C309.93 306.155 312.918 312.108 314.075 314.484C316.897 314.401 330.548 314.1 333.296 315.948C336.103 317.837 339.111 322.128 339.604 322.846C340.735 323.528 343.503 324.981 346.564 325C349.069 325.015 351.574 325.011 353.096 325.006C353.247 327.526 353.777 338.738 351.564 342.5C349.064 346.748 346.064 348 346.064 348C346.064 348 338.564 351 338.064 352.5C336.656 356.722 339.178 359.997 339.886 360.807L339.95 360.775C340.892 361.72 343.277 364.168 345.574 366.974C348.192 364.587 359.192 354.713 366.564 350.5C372.842 346.912 383.142 348.554 385.2 348.93L385.261 349.061C386.266 349.401 390.731 351.277 389.564 357.5C388.42 363.601 383.142 364.724 381.804 364.912L381.677 364.785C380.626 364.696 376.604 364.411 374.488 365.033C369.439 366.517 356.337 381.639 354.5 384C361.051 380.884 379.33 372.506 386.064 372C390.661 371.655 397.532 372.295 399.193 372.462L399.225 372.526C400.309 372.717 406.487 374.069 406.064 380C405.66 385.662 401.028 387.151 399.84 387.441L399.907 387.51C398.815 387.582 392.308 388 389.564 388C386.564 388 384.064 390 384.064 390C384.064 390 352.147 416 346.064 416C344.622 416 342.849 414.961 341.054 413.483C340.995 415.782 340.598 425.765 338.064 432C333.766 442.573 317.797 455.377 312.664 459.3L312.924 460.599C314.04 462.455 317.49 468.182 319.564 471.5C322.064 475.5 324.064 481 324.064 481C324.064 481 328.064 491.5 324.064 507C322.004 514.984 317.221 527.907 316.241 530.527C316.757 532.017 318.36 536.353 320.564 539.5C322.592 542.397 326.545 546.143 328.004 547.49C330.098 547.466 339.101 547.657 343.064 552.5C346.533 556.74 345.842 561.871 345.343 564H319.688C318.067 561.853 311.562 553.311 307.064 548.5C302.458 543.574 294.239 536.303 292.493 534.769C293.009 531.574 294.36 520.905 290.564 515C290.119 514.308 289.223 513.291 288.5 512.5C287.311 513.667 282.593 518.777 276.064 524C269.946 528.894 264.826 532.458 263.147 533.605L264.504 551.652C266.78 552.034 271.36 553.194 273.564 556.5C275.583 559.529 276.017 563.69 276.084 566.087L275.672 566.5H252.235C251.13 563.047 247.642 551.352 248.064 542.5C248.501 533.328 245.885 523.01 245.217 520.548C247.209 519.177 251.484 515.451 253.711 507.638C256.677 497.232 253.711 493.734 253.711 493.734C253.711 493.734 251.564 499.5 240.564 515.5C230.755 529.767 225.717 534.493 224.741 535.349L224.703 535.311C222.041 537.57 205.092 551.348 188.564 550.5C172.533 549.678 161.657 540.009 159.47 537.903L158.632 536.879C157.508 535.171 155.177 530.589 159.564 527C164.353 523.082 168.383 525.607 169.346 526.326L169.369 526.303C171.229 528.106 181.378 537.257 193.564 535C205.723 532.748 213.827 524.006 215.316 522.292L215.29 522.251C216.2 521.239 219.748 517.162 224.064 510.5C228.499 503.654 232.484 493.459 233.14 491.748L233.162 491.77C234.085 489.611 241.287 472.716 245.564 461.5C249.955 449.985 256.064 432.5 256.064 432.5C256.064 432.5 260.553 419.169 265.564 412C270.252 405.292 279.729 395.915 280.272 395.38L280.217 395.325C281.493 393.851 290.386 383.406 292.564 376C294.906 368.037 294.615 357.003 294.569 355.64H294.537Z" fill="#F5F5F5"/>
<path d="M294.537 355.64L295.036 355.6L294.999 355.14H294.537V355.64ZM294.569 355.64L294.069 355.657L294.086 356.14H294.569V355.64ZM280.217 395.325L280.595 395.652L280.899 395.3L280.57 394.971L280.217 395.325ZM280.272 395.38L279.921 395.023L279.562 395.377L279.918 395.733L280.272 395.38ZM233.162 491.77L233.516 491.417L232.993 490.894L232.702 491.574L233.162 491.77ZM215.29 522.251L215.662 522.586L215.913 522.306L215.715 521.987L215.29 522.251ZM233.14 491.748L232.786 492.101L233.331 492.646L233.607 491.927L233.14 491.748ZM169.369 526.303L169.021 526.662L169.374 527.005L169.722 526.657L169.369 526.303ZM215.316 522.292L214.938 521.964L214.696 522.243L214.891 522.556L215.316 522.292ZM169.346 526.326L169.645 525.926L169.298 525.667L168.992 525.973L169.346 526.326ZM224.703 535.311L224.35 535.665L224.675 535.99L225.027 535.692L224.703 535.311ZM224.741 535.349L225.095 534.996L224.763 534.664L224.411 534.973L224.741 535.349ZM245.217 520.548L245.5 520.96L245.792 520.759L245.699 520.417L245.217 520.548ZM252.235 566.5L252.711 566.348L252.6 566H252.235V566.5ZM275.672 566.5V566H275.465L275.318 566.146L275.672 566.5ZM264.504 551.652L265.002 551.614L264.973 551.224L264.587 551.159L264.504 551.652ZM276.084 566.087L275.731 565.734L275.579 565.886L275.585 566.102L276.084 566.087ZM263.147 533.605L263.429 534.018L263.667 533.855L263.646 533.568L263.147 533.605ZM288.5 512.5L288.008 512.411L287.726 513.96L288.85 512.857L288.5 512.5ZM292.493 534.769L292.987 534.848L293.031 534.575L292.823 534.393L292.493 534.769ZM319.688 564L320.087 563.699L319.937 563.5H319.688V564ZM345.343 564V563.5H344.947L344.856 563.886L345.343 564ZM328.004 547.49L328.344 547.122L328.198 546.987L327.999 546.99L328.004 547.49ZM316.241 530.527L316.71 530.703L316.773 530.534L316.714 530.364L316.241 530.527ZM312.924 460.599L313.414 460.501L313.397 460.416L313.352 460.341L312.924 460.599ZM312.664 459.3L312.968 459.697L313.215 459.508L313.154 459.202L312.664 459.3ZM341.054 413.483L340.681 413.816L341.522 414.758L341.554 413.496L341.054 413.483ZM399.907 387.51L399.874 387.011L398.801 387.082L399.547 387.857L399.907 387.51ZM399.225 372.526L399.672 372.302L399.56 372.077L399.312 372.034L399.225 372.526ZM399.84 387.441L399.958 387.926L400.803 387.72L400.2 387.094L399.84 387.441ZM354 384.5L353.551 384.721L353.626 384.872L353.776 384.947L354 384.5ZM399.193 372.462L398.746 372.685L398.869 372.932L399.143 372.959L399.193 372.462ZM339.886 360.807L340.263 360.478L340.008 360.187L339.663 360.36L339.886 360.807ZM353.096 325.006L352.597 325.036L352.626 325.508L353.098 325.506L353.096 325.006ZM303.487 298.34L303.158 298.717L303.79 299.266L303.974 298.45L303.487 298.34ZM314.075 314.484L314.524 314.265L314.383 313.974L314.06 313.984L314.075 314.484ZM339.604 322.846L340.016 322.563L339.955 322.473L339.862 322.417L339.604 322.846ZM345.574 366.974L345.961 366.657L345.627 366.249L345.237 366.604L345.574 366.974ZM385.2 348.93L384.747 349.142L384.856 349.376L385.11 349.422L385.2 348.93ZM385.261 349.061L385.714 348.849L385.623 348.656L385.421 348.587L385.261 349.061ZM381.804 364.912L382.158 364.559L381.982 364.382L381.735 364.417L381.804 364.912ZM381.677 364.785L381.324 365.139L381.453 365.268L381.635 365.283L381.677 364.785ZM303.354 300.081L303.793 300.32V300.32L303.354 300.081ZM339.95 360.775L339.596 361.128L339.851 361.384L340.174 361.222L339.95 360.775ZM349 375L349.438 374.759L349 375ZM294.537 355.64L294.039 355.679L294.046 355.778L294.545 355.738L295.043 355.699L295.036 355.6L294.537 355.64ZM294.564 355.5C294.064 355.521 294.064 355.521 294.064 355.521V355.521C294.064 355.521 294.064 355.521 294.064 355.521C294.064 355.521 294.064 355.521 294.064 355.521C294.064 355.521 294.064 355.521 294.064 355.521C294.064 355.521 294.064 355.521 294.064 355.521C294.064 355.521 294.064 355.522 294.064 355.523C294.064 355.524 294.064 355.526 294.065 355.529C294.065 355.534 294.065 355.543 294.066 355.554C294.066 355.577 294.068 355.611 294.069 355.657L294.569 355.64L295.069 355.623C295.067 355.576 295.066 355.541 295.065 355.517C295.064 355.504 295.064 355.495 295.064 355.489C295.064 355.486 295.064 355.484 295.064 355.482C295.063 355.481 295.063 355.48 295.063 355.48C295.063 355.48 295.063 355.48 295.063 355.479C295.063 355.479 295.063 355.479 295.063 355.479C295.063 355.479 295.063 355.479 295.063 355.479C295.063 355.479 295.063 355.479 295.063 355.479V355.479C295.063 355.479 295.063 355.479 294.564 355.5ZM280.217 395.325L279.839 394.997C279.789 395.054 279.752 395.097 279.726 395.126C279.714 395.141 279.704 395.152 279.698 395.159C279.695 395.162 279.692 395.165 279.691 395.167C279.69 395.168 279.69 395.168 279.689 395.169C279.689 395.169 279.689 395.169 279.689 395.169C279.689 395.169 279.689 395.169 279.689 395.169L279.689 395.169L279.689 395.169C279.689 395.169 279.689 395.169 280.064 395.5C280.439 395.831 280.439 395.831 280.439 395.831C280.439 395.831 280.439 395.831 280.439 395.831C280.439 395.831 280.439 395.831 280.439 395.831C280.439 395.831 280.439 395.831 280.439 395.831C280.439 395.83 280.439 395.83 280.439 395.83C280.439 395.83 280.439 395.83 280.44 395.83C280.44 395.829 280.441 395.828 280.442 395.827C280.443 395.825 280.446 395.822 280.449 395.819C280.456 395.811 280.466 395.799 280.479 395.784C280.506 395.754 280.544 395.71 280.595 395.652L280.217 395.325ZM280.296 395.356L279.945 394.999L279.921 395.023L280.272 395.38L280.623 395.736L280.647 395.712L280.296 395.356ZM233.162 491.77L232.702 491.574L232.604 491.803L233.064 492L233.524 492.197L233.622 491.967L233.162 491.77ZM215.064 522.5C215.429 522.842 215.429 522.842 215.429 522.842C215.429 522.842 215.429 522.842 215.429 522.842C215.429 522.842 215.429 522.842 215.429 522.842C215.429 522.842 215.429 522.842 215.429 522.842C215.429 522.841 215.429 522.841 215.429 522.841C215.43 522.841 215.43 522.841 215.43 522.84C215.431 522.839 215.432 522.838 215.433 522.837C215.436 522.834 215.44 522.83 215.445 522.824C215.455 522.813 215.47 522.797 215.49 522.776C215.529 522.733 215.587 522.67 215.662 522.586L215.29 522.251L214.919 521.917C214.846 521.998 214.79 522.059 214.753 522.1C214.735 522.12 214.721 522.135 214.712 522.144C214.707 522.149 214.704 522.153 214.702 522.155C214.701 522.156 214.7 522.157 214.699 522.158C214.699 522.158 214.699 522.158 214.699 522.158C214.699 522.158 214.699 522.158 214.699 522.158C214.699 522.158 214.699 522.158 214.699 522.158C214.699 522.158 214.699 522.158 214.699 522.158C214.699 522.158 214.699 522.158 214.699 522.158C214.699 522.158 214.699 522.158 215.064 522.5ZM233.14 491.748L233.607 491.927C233.638 491.845 233.662 491.783 233.678 491.74C233.686 491.719 233.692 491.703 233.696 491.692C233.698 491.687 233.699 491.683 233.7 491.68C233.701 491.678 233.701 491.677 233.702 491.677C233.702 491.676 233.702 491.676 233.702 491.676C233.702 491.676 233.702 491.676 233.702 491.676C233.702 491.676 233.702 491.676 233.702 491.675C233.702 491.675 233.702 491.675 233.702 491.675C233.702 491.675 233.702 491.675 233.702 491.675C233.702 491.675 233.702 491.675 233.234 491.5C232.766 491.324 232.766 491.324 232.766 491.324C232.766 491.324 232.766 491.324 232.766 491.324C232.766 491.324 232.766 491.324 232.766 491.324C232.766 491.325 232.766 491.325 232.766 491.325C232.765 491.326 232.765 491.327 232.764 491.328C232.764 491.33 232.762 491.334 232.76 491.339C232.756 491.35 232.75 491.365 232.743 491.386C232.727 491.427 232.704 491.488 232.673 491.569L233.14 491.748ZM169.064 526C168.703 526.346 168.703 526.346 168.703 526.346C168.703 526.346 168.703 526.346 168.703 526.346C168.703 526.346 168.703 526.346 168.703 526.346C168.703 526.346 168.703 526.346 168.703 526.346C168.703 526.346 168.703 526.346 168.703 526.346C168.704 526.347 168.704 526.347 168.705 526.348C168.706 526.349 168.707 526.35 168.709 526.352C168.713 526.356 168.718 526.362 168.725 526.369C168.739 526.383 168.759 526.404 168.786 526.431C168.839 526.485 168.918 526.563 169.021 526.662L169.369 526.303L169.717 525.944C169.619 525.849 169.545 525.776 169.496 525.727C169.472 525.702 169.453 525.683 169.442 525.671C169.436 525.665 169.431 525.661 169.429 525.658C169.427 525.656 169.426 525.655 169.426 525.655C169.425 525.655 169.425 525.654 169.425 525.654C169.425 525.654 169.425 525.654 169.425 525.654C169.425 525.654 169.425 525.654 169.425 525.654C169.425 525.654 169.425 525.654 169.425 525.654C169.425 525.654 169.425 525.654 169.425 525.654C169.425 525.654 169.425 525.654 169.064 526ZM215.316 522.292L215.693 522.62C215.777 522.524 215.841 522.448 215.885 522.396C215.906 522.371 215.923 522.351 215.934 522.337C215.94 522.33 215.944 522.325 215.947 522.321C215.949 522.319 215.95 522.318 215.951 522.317C215.951 522.316 215.952 522.316 215.952 522.315C215.952 522.315 215.952 522.315 215.952 522.315C215.952 522.315 215.952 522.315 215.952 522.315C215.952 522.315 215.952 522.315 215.952 522.315C215.952 522.315 215.952 522.315 215.952 522.315C215.952 522.315 215.952 522.315 215.564 522C215.175 521.685 215.175 521.685 215.175 521.685C215.175 521.685 215.175 521.685 215.175 521.685C215.175 521.685 215.175 521.685 215.175 521.685C215.175 521.685 215.175 521.685 215.175 521.685C215.175 521.685 215.175 521.685 215.175 521.685C215.175 521.685 215.175 521.686 215.175 521.686C215.175 521.686 215.174 521.687 215.173 521.689C215.17 521.691 215.167 521.695 215.162 521.701C215.153 521.713 215.138 521.731 215.118 521.754C215.079 521.802 215.019 521.872 214.938 521.964L215.316 522.292ZM169.564 526.5C169.896 526.126 169.896 526.126 169.896 526.126C169.896 526.126 169.896 526.126 169.896 526.126C169.896 526.126 169.896 526.126 169.896 526.126C169.896 526.126 169.896 526.126 169.896 526.126C169.895 526.126 169.895 526.126 169.895 526.125C169.895 526.125 169.894 526.124 169.893 526.124C169.892 526.123 169.891 526.122 169.889 526.12C169.885 526.117 169.881 526.113 169.875 526.108C169.863 526.098 169.846 526.084 169.825 526.066C169.783 526.032 169.723 525.984 169.645 525.926L169.346 526.326L169.046 526.727C169.111 526.775 169.16 526.814 169.191 526.84C169.207 526.853 169.218 526.862 169.225 526.868C169.228 526.871 169.231 526.873 169.232 526.874C169.232 526.874 169.233 526.874 169.233 526.874C169.233 526.874 169.233 526.874 169.232 526.874C169.232 526.874 169.232 526.874 169.232 526.874C169.232 526.874 169.232 526.874 169.232 526.874C169.232 526.874 169.232 526.874 169.232 526.874C169.232 526.874 169.232 526.874 169.232 526.874C169.232 526.874 169.232 526.874 169.564 526.5ZM224.703 535.311L225.027 535.692C225.147 535.59 225.238 535.511 225.3 535.458C225.331 535.431 225.355 535.41 225.371 535.396C225.379 535.389 225.385 535.384 225.389 535.38C225.391 535.378 225.393 535.377 225.394 535.376C225.394 535.375 225.395 535.375 225.395 535.374C225.395 535.374 225.395 535.374 225.396 535.374C225.396 535.374 225.396 535.374 225.396 535.374C225.396 535.374 225.396 535.374 225.396 535.374C225.396 535.374 225.396 535.374 225.396 535.374C225.396 535.374 225.396 535.374 225.064 535C224.732 534.626 224.732 534.626 224.732 534.626C224.732 534.626 224.732 534.626 224.732 534.626C224.732 534.626 224.732 534.626 224.732 534.626C224.732 534.626 224.732 534.626 224.732 534.626C224.732 534.626 224.732 534.626 224.732 534.626C224.732 534.626 224.731 534.627 224.731 534.627C224.73 534.628 224.729 534.629 224.727 534.63C224.724 534.633 224.718 534.638 224.711 534.645C224.696 534.657 224.674 534.677 224.644 534.703C224.585 534.754 224.497 534.83 224.38 534.93L224.703 535.311ZM224.564 535.5C224.876 535.89 224.876 535.89 224.876 535.89C224.876 535.89 224.876 535.89 224.876 535.89C224.876 535.89 224.876 535.89 224.876 535.89C224.876 535.89 224.876 535.89 224.876 535.89C224.877 535.89 224.877 535.89 224.877 535.89C224.877 535.89 224.878 535.889 224.878 535.889C224.879 535.888 224.88 535.887 224.881 535.886C224.884 535.884 224.887 535.881 224.892 535.878C224.901 535.871 224.913 535.86 224.929 535.847C224.962 535.819 225.009 535.779 225.071 535.725L224.741 535.349L224.411 534.973C224.355 535.023 224.313 535.058 224.287 535.08C224.273 535.092 224.264 535.1 224.258 535.104C224.255 535.107 224.253 535.108 224.252 535.109C224.251 535.11 224.251 535.11 224.251 535.11C224.251 535.11 224.251 535.11 224.251 535.11C224.251 535.11 224.251 535.11 224.251 535.11C224.251 535.11 224.251 535.11 224.251 535.11C224.251 535.11 224.251 535.11 224.251 535.11C224.251 535.11 224.251 535.11 224.251 535.11C224.252 535.11 224.252 535.11 224.564 535.5ZM244.146 521.199C244.362 521.65 244.362 521.65 244.362 521.65C244.362 521.65 244.362 521.65 244.362 521.65C244.362 521.65 244.362 521.65 244.362 521.65C244.362 521.65 244.363 521.65 244.363 521.65C244.363 521.65 244.364 521.649 244.365 521.649C244.366 521.648 244.368 521.647 244.37 521.646C244.375 521.644 244.381 521.641 244.388 521.637C244.403 521.63 244.425 521.619 244.452 521.605C244.506 521.576 244.583 521.535 244.682 521.478C244.878 521.366 245.158 521.196 245.5 520.96L245.217 520.548L244.933 520.136C244.615 520.356 244.359 520.511 244.185 520.61C244.098 520.66 244.032 520.696 243.989 520.718C243.967 520.73 243.951 520.738 243.941 520.743C243.936 520.745 243.933 520.747 243.931 520.748C243.93 520.748 243.93 520.749 243.929 520.749C243.929 520.749 243.929 520.749 243.929 520.749C243.93 520.749 243.93 520.748 243.93 520.748C243.93 520.748 243.93 520.748 243.93 520.748C243.93 520.748 243.93 520.748 243.93 520.748C243.93 520.748 243.93 520.748 244.146 521.199ZM245.064 520C244.584 520.14 244.584 520.14 244.584 520.14C244.584 520.14 244.584 520.14 244.584 520.14C244.584 520.14 244.584 520.14 244.584 520.14C244.584 520.14 244.584 520.14 244.584 520.14C244.584 520.141 244.584 520.141 244.585 520.142C244.585 520.143 244.586 520.145 244.586 520.148C244.588 520.154 244.59 520.162 244.594 520.173C244.6 520.196 244.61 520.231 244.623 520.276C244.649 520.367 244.686 520.503 244.734 520.679L245.217 520.548L245.699 520.417C245.651 520.237 245.612 520.099 245.585 520.005C245.572 519.958 245.562 519.922 245.555 519.898C245.552 519.886 245.549 519.876 245.547 519.87C245.546 519.867 245.545 519.864 245.545 519.863C245.545 519.862 245.544 519.861 245.544 519.861C245.544 519.861 245.544 519.86 245.544 519.86C245.544 519.86 245.544 519.86 245.544 519.86C245.544 519.86 245.544 519.86 245.544 519.86C245.544 519.86 245.544 519.86 245.544 519.86C245.544 519.86 245.544 519.86 245.064 520ZM252.235 566.5L251.759 566.652C251.862 566.976 251.945 567.228 252.002 567.399C252.031 567.485 252.053 567.55 252.068 567.595C252.075 567.617 252.081 567.634 252.085 567.645C252.087 567.651 252.089 567.655 252.09 567.658C252.09 567.66 252.09 567.661 252.091 567.662C252.091 567.662 252.091 567.662 252.091 567.663C252.091 567.663 252.091 567.663 252.091 567.663C252.091 567.663 252.091 567.663 252.091 567.663C252.091 567.663 252.091 567.663 252.091 567.663C252.091 567.663 252.091 567.663 252.564 567.5C253.037 567.337 253.037 567.337 253.037 567.337C253.037 567.337 253.037 567.337 253.037 567.337C253.037 567.337 253.037 567.337 253.037 567.337C253.036 567.337 253.036 567.337 253.036 567.336C253.036 567.336 253.036 567.335 253.035 567.333C253.034 567.331 253.033 567.327 253.031 567.322C253.028 567.311 253.022 567.295 253.015 567.274C253 567.231 252.979 567.167 252.951 567.083C252.895 566.915 252.813 566.667 252.711 566.348L252.235 566.5ZM251.064 566.5V567H252.235V566.5V566H251.064V566.5ZM275.672 566.5V567H276.064V566.5V566H275.672V566.5ZM263.161 551.477C263.125 551.975 263.125 551.975 263.125 551.975C263.125 551.975 263.125 551.975 263.125 551.975C263.125 551.975 263.125 551.975 263.125 551.975C263.125 551.975 263.125 551.975 263.125 551.975C263.125 551.975 263.125 551.975 263.126 551.975C263.126 551.975 263.127 551.975 263.129 551.976C263.132 551.976 263.137 551.976 263.144 551.977C263.159 551.978 263.18 551.98 263.21 551.982C263.268 551.988 263.355 551.996 263.467 552.009C263.693 552.035 264.02 552.077 264.421 552.145L264.504 551.652L264.587 551.159C264.166 551.088 263.821 551.043 263.58 551.015C263.46 551.002 263.365 550.992 263.3 550.986C263.268 550.984 263.242 550.981 263.225 550.98C263.216 550.979 263.209 550.979 263.204 550.978C263.202 550.978 263.2 550.978 263.199 550.978C263.198 550.978 263.197 550.978 263.197 550.978C263.197 550.978 263.196 550.978 263.196 550.978C263.196 550.978 263.196 550.978 263.196 550.978C263.196 550.978 263.196 550.978 263.196 550.978C263.196 550.978 263.196 550.978 263.161 551.477ZM276.084 566.087L275.585 566.102C275.601 566.673 275.596 567.142 275.587 567.466C275.582 567.629 275.577 567.755 275.572 567.84C275.57 567.882 275.568 567.914 275.567 567.935C275.566 567.945 275.566 567.953 275.566 567.958C275.565 567.961 275.565 567.962 275.565 567.963C275.565 567.964 275.565 567.964 275.565 567.964C275.565 567.965 275.565 567.965 275.565 567.965C275.565 567.965 275.565 567.965 275.565 567.965C275.565 567.965 275.565 567.964 275.565 567.964C275.565 567.964 275.565 567.964 276.064 568C276.563 568.036 276.563 568.036 276.563 568.036C276.563 568.036 276.563 568.035 276.563 568.035C276.563 568.035 276.563 568.035 276.563 568.035C276.563 568.035 276.563 568.035 276.563 568.034C276.563 568.034 276.563 568.033 276.563 568.032C276.563 568.03 276.563 568.028 276.563 568.025C276.564 568.018 276.564 568.008 276.565 567.996C276.567 567.972 276.569 567.936 276.571 567.89C276.576 567.798 276.582 567.665 276.586 567.494C276.596 567.154 276.601 566.666 276.584 566.073L276.084 566.087ZM263.064 532.5L262.565 532.537L262.648 533.642L263.147 533.605L263.646 533.568L263.562 532.462L263.064 532.5ZM264.504 551.652L264.005 551.689L264.063 552.463L264.562 552.425L265.061 552.388L265.002 551.614L264.504 551.652ZM289.064 512.5C289.268 512.044 289.268 512.044 289.268 512.044C289.268 512.044 289.268 512.044 289.268 512.044C289.268 512.044 289.268 512.043 289.267 512.043C289.267 512.043 289.267 512.043 289.266 512.043C289.265 512.042 289.264 512.042 289.263 512.042C289.261 512.041 289.259 512.04 289.256 512.038C289.25 512.036 289.243 512.033 289.234 512.029C289.216 512.022 289.193 512.013 289.165 512.003C289.11 511.984 289.03 511.96 288.938 511.943C288.8 511.918 288.428 511.87 288.15 512.143L288.5 512.5L288.85 512.857C288.795 512.911 288.74 512.921 288.729 512.922C288.72 512.924 288.729 512.921 288.759 512.927C288.785 512.932 288.814 512.94 288.837 512.948C288.848 512.952 288.856 512.955 288.86 512.957C288.862 512.958 288.863 512.958 288.863 512.958C288.863 512.958 288.863 512.958 288.862 512.958C288.862 512.957 288.862 512.957 288.861 512.957C288.861 512.957 288.861 512.957 288.86 512.957C288.86 512.957 288.86 512.957 288.86 512.957C288.86 512.956 288.86 512.956 288.86 512.956C288.86 512.956 288.859 512.956 289.064 512.5ZM263.147 533.605L262.865 533.192C262.676 533.321 262.531 533.419 262.434 533.485C262.385 533.518 262.348 533.543 262.323 533.559C262.311 533.568 262.302 533.574 262.295 533.578C262.292 533.58 262.29 533.582 262.289 533.583C262.288 533.583 262.287 533.583 262.287 533.584C262.287 533.584 262.287 533.584 262.287 533.584C262.287 533.584 262.287 533.584 262.287 533.584C262.287 533.584 262.287 533.584 262.287 533.584C262.287 533.584 262.287 533.584 262.564 534C262.841 534.416 262.841 534.416 262.841 534.416C262.841 534.416 262.841 534.416 262.841 534.416C262.841 534.416 262.841 534.416 262.841 534.416C262.841 534.416 262.841 534.416 262.841 534.416C262.842 534.416 262.842 534.416 262.842 534.416C262.842 534.415 262.843 534.415 262.844 534.414C262.846 534.413 262.848 534.411 262.851 534.409C262.858 534.405 262.867 534.398 262.88 534.39C262.906 534.373 262.943 534.348 262.993 534.314C263.092 534.247 263.239 534.148 263.429 534.018L263.147 533.605ZM268.205 493.734C267.941 494.159 267.941 494.159 267.941 494.159C267.941 494.159 267.941 494.159 267.941 494.159C267.942 494.16 267.943 494.16 267.944 494.161C267.947 494.162 267.95 494.165 267.955 494.168C267.965 494.174 267.98 494.184 268 494.196C268.04 494.221 268.099 494.258 268.177 494.307C268.331 494.405 268.559 494.549 268.848 494.735C269.426 495.107 270.251 495.645 271.238 496.308C273.214 497.634 275.835 499.458 278.422 501.451C281.014 503.447 283.556 505.6 285.383 507.586C286.297 508.58 287.017 509.515 287.476 510.355C287.941 511.204 288.103 511.889 288.008 512.411L288.5 512.5L288.992 512.59C289.147 511.736 288.862 510.803 288.354 509.875C287.84 508.936 287.06 507.932 286.119 506.909C284.234 504.861 281.64 502.667 279.033 500.659C276.422 498.648 273.782 496.811 271.795 495.478C270.802 494.811 269.971 494.27 269.389 493.895C269.097 493.707 268.868 493.561 268.711 493.462C268.633 493.412 268.573 493.375 268.532 493.349C268.512 493.336 268.496 493.326 268.486 493.32C268.48 493.317 268.476 493.314 268.474 493.313C268.472 493.312 268.471 493.311 268.471 493.311C268.47 493.31 268.47 493.31 268.47 493.31C268.47 493.31 268.469 493.31 268.205 493.734ZM292.493 534.769L292 534.689C291.952 534.982 291.912 535.21 291.884 535.365C291.87 535.443 291.859 535.502 291.852 535.541C291.848 535.561 291.845 535.576 291.843 535.585C291.842 535.59 291.841 535.594 291.841 535.596C291.841 535.597 291.841 535.598 291.84 535.598C291.84 535.598 291.84 535.599 291.84 535.599C291.84 535.599 291.84 535.599 291.84 535.599V535.599C291.84 535.599 291.84 535.599 291.84 535.599C291.84 535.599 291.84 535.599 292.331 535.697C292.821 535.794 292.821 535.794 292.821 535.794C292.821 535.794 292.821 535.794 292.821 535.794C292.821 535.794 292.821 535.794 292.821 535.794C292.821 535.794 292.821 535.794 292.821 535.794C292.821 535.794 292.821 535.793 292.821 535.793C292.821 535.792 292.822 535.791 292.822 535.789C292.823 535.787 292.823 535.782 292.824 535.777C292.827 535.766 292.83 535.75 292.834 535.729C292.842 535.686 292.853 535.625 292.868 535.544C292.897 535.383 292.939 535.148 292.987 534.848L292.493 534.769ZM292.162 534.478C291.833 534.855 291.833 534.855 291.833 534.855C291.833 534.855 291.833 534.855 291.833 534.855C291.833 534.855 291.833 534.855 291.833 534.855C291.833 534.855 291.833 534.855 291.833 534.855C291.834 534.855 291.834 534.855 291.834 534.856C291.835 534.857 291.837 534.858 291.838 534.859C291.842 534.862 291.847 534.867 291.854 534.873C291.868 534.886 291.89 534.904 291.918 534.929C291.973 534.977 292.056 535.05 292.163 535.144L292.493 534.769L292.823 534.393C292.716 534.298 292.633 534.226 292.576 534.176C292.548 534.152 292.527 534.133 292.512 534.12C292.505 534.114 292.5 534.109 292.496 534.106C292.494 534.104 292.493 534.103 292.492 534.102C292.492 534.102 292.491 534.102 292.491 534.102C292.491 534.101 292.491 534.101 292.491 534.101C292.491 534.101 292.491 534.101 292.491 534.101C292.491 534.101 292.491 534.101 292.491 534.101C292.491 534.101 292.491 534.101 292.491 534.101C292.491 534.101 292.491 534.101 292.162 534.478ZM319.688 564L319.289 564.301C319.41 564.462 319.504 564.587 319.567 564.671C319.599 564.713 319.623 564.745 319.639 564.767C319.647 564.778 319.653 564.786 319.657 564.791C319.659 564.794 319.661 564.796 319.662 564.797C319.662 564.798 319.663 564.799 319.663 564.799C319.663 564.799 319.663 564.799 319.663 564.799C319.663 564.799 319.663 564.799 319.663 564.799C319.663 564.799 319.663 564.799 319.663 564.799C319.663 564.799 319.663 564.799 320.064 564.5C320.464 564.201 320.464 564.201 320.464 564.201C320.464 564.201 320.464 564.201 320.464 564.201L320.464 564.201C320.464 564.201 320.464 564.2 320.464 564.2C320.464 564.2 320.464 564.2 320.464 564.2C320.464 564.2 320.463 564.199 320.463 564.198C320.462 564.197 320.46 564.195 320.458 564.192C320.454 564.187 320.448 564.178 320.439 564.167C320.423 564.145 320.399 564.113 320.367 564.07C320.303 563.985 320.209 563.86 320.087 563.699L319.688 564ZM319.064 564V564.5H319.688V564V563.5H319.064V564ZM345.343 564V564.5H346.564V564V563.5H345.343V564ZM345.064 565C345.535 565.168 345.535 565.168 345.535 565.168C345.535 565.168 345.535 565.168 345.535 565.168C345.535 565.168 345.535 565.168 345.535 565.168C345.535 565.168 345.535 565.167 345.535 565.167C345.535 565.167 345.535 565.166 345.536 565.166C345.536 565.165 345.537 565.163 345.537 565.161C345.539 565.157 345.54 565.152 345.543 565.145C345.547 565.132 345.554 565.113 345.562 565.089C345.577 565.041 345.6 564.971 345.627 564.881C345.681 564.701 345.753 564.441 345.83 564.114L345.343 564L344.856 563.886C344.785 564.191 344.718 564.431 344.669 564.593C344.645 564.674 344.625 564.736 344.612 564.776C344.605 564.796 344.6 564.811 344.597 564.82C344.595 564.825 344.594 564.828 344.594 564.83C344.593 564.831 344.593 564.832 344.593 564.832C344.593 564.832 344.593 564.832 344.593 564.832C344.593 564.832 344.593 564.832 344.593 564.832C344.593 564.832 344.593 564.832 344.593 564.832C344.593 564.832 344.593 564.832 344.593 564.832C344.593 564.832 344.593 564.832 345.064 565ZM328.004 547.49L327.999 546.99C327.854 546.991 327.741 546.994 327.663 546.996C327.624 546.997 327.595 546.998 327.574 546.999C327.564 547 327.556 547 327.55 547C327.548 547 327.546 547 327.544 547C327.543 547 327.543 547 327.542 547C327.542 547 327.542 547 327.542 547C327.541 547 327.541 547 327.541 547C327.541 547 327.541 547.001 327.541 547.001C327.541 547.001 327.541 547.001 327.541 547.001C327.541 547.001 327.541 547.001 327.564 547.5C327.587 547.999 327.587 547.999 327.587 547.999C327.587 547.999 327.587 547.999 327.587 547.999C327.586 547.999 327.586 547.999 327.586 547.999C327.586 547.999 327.586 547.999 327.586 547.999C327.586 547.999 327.586 547.999 327.587 547.999C327.587 547.999 327.587 547.999 327.587 547.999C327.588 547.999 327.59 547.999 327.592 547.999C327.596 547.999 327.603 547.999 327.612 547.998C327.629 547.998 327.656 547.997 327.692 547.996C327.764 547.994 327.871 547.991 328.01 547.99L328.004 547.49ZM316.064 530C315.588 530.152 315.588 530.152 315.588 530.152C315.588 530.152 315.588 530.152 315.588 530.152C315.588 530.152 315.588 530.152 315.588 530.152C315.588 530.152 315.588 530.152 315.588 530.152C315.588 530.152 315.588 530.153 315.588 530.153C315.588 530.153 315.588 530.154 315.588 530.155C315.589 530.157 315.59 530.159 315.591 530.162C315.593 530.168 315.596 530.178 315.6 530.19C315.608 530.214 315.619 530.249 315.634 530.295C315.665 530.387 315.71 530.521 315.769 530.691L316.241 530.527L316.714 530.364C316.656 530.198 316.613 530.068 316.583 529.98C316.569 529.936 316.558 529.903 316.551 529.881C316.547 529.869 316.544 529.861 316.543 529.856C316.542 529.853 316.541 529.851 316.541 529.85C316.541 529.849 316.54 529.849 316.54 529.848C316.54 529.848 316.54 529.848 316.54 529.848C316.54 529.848 316.54 529.848 316.54 529.848C316.54 529.848 316.54 529.848 316.54 529.848V529.848C316.54 529.848 316.54 529.848 316.064 530ZM328.004 547.49L327.665 547.857C327.843 548.021 327.984 548.149 328.08 548.237C328.129 548.281 328.166 548.315 328.191 548.337C328.204 548.349 328.214 548.358 328.22 548.363C328.224 548.366 328.226 548.369 328.228 548.37C328.229 548.371 328.229 548.372 328.23 548.372C328.23 548.372 328.23 548.372 328.23 548.372C328.23 548.372 328.23 548.373 328.23 548.373C328.23 548.373 328.23 548.373 328.23 548.373C328.23 548.373 328.23 548.373 328.23 548.373C328.23 548.373 328.23 548.373 328.564 548C328.897 547.627 328.897 547.627 328.897 547.627V547.627V547.627C328.897 547.627 328.897 547.627 328.897 547.627C328.897 547.627 328.897 547.627 328.897 547.627C328.896 547.627 328.896 547.626 328.895 547.625C328.894 547.624 328.891 547.622 328.888 547.619C328.882 547.614 328.873 547.605 328.861 547.594C328.836 547.572 328.8 547.539 328.752 547.496C328.657 547.41 328.519 547.284 328.344 547.122L328.004 547.49ZM316.064 531C316.532 531.177 316.532 531.177 316.532 531.177C316.532 531.177 316.532 531.177 316.532 531.177C316.532 531.177 316.532 531.177 316.532 531.177C316.532 531.177 316.532 531.177 316.532 531.177C316.532 531.176 316.532 531.176 316.532 531.176C316.532 531.176 316.532 531.175 316.532 531.175C316.533 531.173 316.534 531.171 316.535 531.169C316.537 531.164 316.54 531.156 316.543 531.146C316.551 531.125 316.563 531.095 316.578 531.055C316.608 530.975 316.652 530.856 316.71 530.703L316.241 530.527L315.773 530.352C315.716 530.506 315.671 530.623 315.642 530.703C315.627 530.743 315.615 530.773 315.608 530.793C315.604 530.803 315.601 530.811 315.599 530.816C315.598 530.818 315.597 530.82 315.597 530.821C315.597 530.822 315.596 530.822 315.596 530.823C315.596 530.823 315.596 530.823 315.596 530.823C315.596 530.823 315.596 530.823 315.596 530.823C315.596 530.823 315.596 530.823 315.596 530.823C315.596 530.823 315.596 530.823 316.064 531ZM312.564 460C312.135 460.257 312.135 460.257 312.135 460.257C312.135 460.257 312.135 460.257 312.135 460.257C312.135 460.257 312.135 460.257 312.135 460.257C312.135 460.257 312.135 460.257 312.135 460.257C312.135 460.257 312.135 460.258 312.136 460.258C312.136 460.258 312.136 460.259 312.137 460.26C312.138 460.261 312.139 460.264 312.141 460.267C312.145 460.274 312.151 460.284 312.159 460.297C312.175 460.324 312.199 460.363 312.229 460.414C312.291 460.516 312.381 460.666 312.495 460.857L312.924 460.599L313.352 460.341C313.238 460.151 313.148 460.001 313.086 459.899C313.056 459.848 313.032 459.809 313.017 459.783C313.009 459.769 313.003 459.759 312.999 459.753C312.997 459.749 312.995 459.747 312.994 459.745C312.994 459.744 312.993 459.744 312.993 459.743C312.993 459.743 312.993 459.743 312.993 459.743C312.993 459.743 312.993 459.743 312.993 459.743C312.993 459.743 312.993 459.743 312.993 459.743C312.993 459.743 312.993 459.743 312.993 459.743C312.993 459.743 312.993 459.743 312.564 460ZM311.064 460.5C311.357 460.905 311.357 460.905 311.357 460.905C311.357 460.905 311.357 460.905 311.357 460.905C311.357 460.905 311.358 460.905 311.358 460.905C311.358 460.905 311.358 460.905 311.358 460.904C311.358 460.904 311.359 460.904 311.359 460.903C311.361 460.902 311.362 460.901 311.365 460.899C311.37 460.896 311.377 460.891 311.386 460.884C311.404 460.871 311.432 460.851 311.468 460.824C311.54 460.771 311.646 460.693 311.784 460.591C312.059 460.386 312.461 460.085 312.968 459.697L312.664 459.3L312.36 458.903C311.857 459.287 311.459 459.586 311.187 459.788C311.051 459.889 310.946 459.966 310.876 460.018C310.841 460.044 310.814 460.063 310.797 460.076C310.788 460.083 310.781 460.087 310.777 460.091C310.775 460.092 310.773 460.093 310.772 460.094C310.771 460.095 310.771 460.095 310.771 460.095C310.771 460.095 310.77 460.095 310.77 460.095C310.77 460.095 310.77 460.095 310.77 460.095C310.77 460.095 310.77 460.095 310.77 460.095C310.77 460.095 310.77 460.095 311.064 460.5ZM341.054 413.483L341.554 413.496C341.558 413.338 341.56 413.216 341.562 413.133C341.563 413.092 341.563 413.06 341.563 413.038C341.564 413.028 341.564 413.019 341.564 413.014C341.564 413.011 341.564 413.009 341.564 413.008C341.564 413.007 341.564 413.006 341.564 413.006C341.564 413.006 341.564 413.005 341.564 413.005C341.564 413.005 341.564 413.005 341.564 413.005C341.564 413.005 341.564 413.005 341.564 413.005C341.564 413.005 341.564 413.005 341.564 413.005C341.564 413.005 341.564 413.005 341.064 413C340.564 412.995 340.564 412.995 340.564 412.995V412.995C340.564 412.995 340.564 412.995 340.564 412.995C340.564 412.995 340.564 412.995 340.564 412.995C340.564 412.995 340.564 412.995 340.564 412.995C340.564 412.995 340.564 412.996 340.564 412.996C340.564 412.998 340.564 412.999 340.564 413.002C340.564 413.007 340.564 413.014 340.564 413.025C340.563 413.045 340.563 413.075 340.562 413.115C340.561 413.196 340.558 413.315 340.554 413.47L341.054 413.483ZM341.054 413.483L341.427 413.15C339.697 411.211 337.958 408.142 336.641 405.523C335.986 404.22 335.44 403.04 335.059 402.186C334.868 401.76 334.719 401.415 334.617 401.177C334.566 401.058 334.527 400.965 334.501 400.903C334.488 400.872 334.478 400.848 334.472 400.833C334.469 400.825 334.466 400.819 334.465 400.815C334.464 400.813 334.463 400.812 334.463 400.811C334.463 400.81 334.463 400.81 334.462 400.81C334.462 400.81 334.462 400.81 334.462 400.81C334.462 400.81 334.462 400.81 334 401C333.538 401.19 333.538 401.19 333.538 401.191C333.538 401.191 333.538 401.191 333.538 401.191C333.538 401.191 333.538 401.192 333.538 401.192C333.539 401.193 333.54 401.195 333.54 401.197C333.542 401.202 333.545 401.208 333.548 401.216C333.555 401.233 333.566 401.258 333.579 401.29C333.606 401.354 333.646 401.448 333.698 401.569C333.801 401.812 333.953 402.162 334.146 402.594C334.532 403.459 335.084 404.653 335.748 405.973C337.069 408.599 338.857 411.771 340.681 413.816L341.054 413.483ZM400.064 387.5L400.031 387.001L399.874 387.011L399.907 387.51L399.94 388.009L400.097 387.999L400.064 387.5ZM399.064 372.5C398.997 372.996 398.997 372.996 398.997 372.996C398.997 372.996 398.997 372.996 398.997 372.996C398.997 372.996 398.997 372.996 398.997 372.996C398.997 372.996 398.997 372.996 398.997 372.996C398.997 372.996 398.997 372.996 398.997 372.996C398.997 372.995 398.997 372.995 398.997 372.995C398.997 372.995 398.997 372.996 398.998 372.996C398.999 372.996 399.001 372.996 399.003 372.996C399.009 372.997 399.017 372.998 399.029 373C399.053 373.004 399.09 373.01 399.138 373.018L399.225 372.526L399.312 372.034C399.256 372.024 399.212 372.017 399.182 372.012C399.166 372.01 399.154 372.008 399.146 372.007C399.141 372.006 399.138 372.005 399.135 372.005C399.134 372.005 399.133 372.005 399.132 372.005C399.132 372.005 399.131 372.005 399.131 372.005C399.131 372.005 399.131 372.004 399.131 372.004C399.131 372.004 399.13 372.004 399.13 372.004C399.13 372.004 399.13 372.004 399.13 372.004H399.13C399.13 372.004 399.13 372.004 399.064 372.5ZM399.84 387.441L399.721 386.955C399.64 386.975 399.578 386.988 399.537 386.996C399.516 387 399.501 387.003 399.492 387.005C399.487 387.006 399.484 387.006 399.483 387.007C399.482 387.007 399.481 387.007 399.481 387.007C399.481 387.007 399.481 387.007 399.481 387.007C399.481 387.007 399.482 387.007 399.482 387.007C399.482 387.007 399.482 387.007 399.482 387.007C399.482 387.007 399.482 387.007 399.482 387.007C399.482 387.007 399.482 387.007 399.482 387.007C399.482 387.007 399.482 387.007 399.564 387.5C399.646 387.993 399.646 387.993 399.646 387.993C399.646 387.993 399.646 387.993 399.646 387.993C399.646 387.993 399.646 387.993 399.646 387.993C399.646 387.993 399.646 387.993 399.646 387.993C399.646 387.993 399.647 387.993 399.647 387.993C399.647 387.993 399.648 387.993 399.649 387.993C399.65 387.993 399.652 387.992 399.654 387.992C399.659 387.991 399.665 387.99 399.672 387.989C399.687 387.986 399.708 387.982 399.735 387.976C399.788 387.966 399.864 387.949 399.958 387.926L399.84 387.441ZM354 384.5C353.776 384.947 353.777 384.947 353.777 384.947C353.777 384.947 353.777 384.947 353.777 384.948C353.777 384.948 353.777 384.948 353.778 384.948C353.778 384.948 353.779 384.948 353.779 384.949C353.78 384.949 353.782 384.95 353.784 384.951C353.787 384.952 353.791 384.955 353.797 384.957C353.807 384.962 353.822 384.969 353.839 384.976C353.873 384.992 353.921 385.012 353.978 385.032C354.076 385.068 354.253 385.125 354.438 385.125C354.532 385.125 354.672 385.111 354.81 385.032C354.965 384.943 355.074 384.797 355.118 384.621C355.157 384.465 355.138 384.312 355.107 384.187C355.075 384.058 355.019 383.921 354.947 383.776L354.5 384L354.053 384.224C354.106 384.329 354.128 384.395 354.137 384.43C354.147 384.469 354.132 384.441 354.148 384.379C354.156 384.344 354.174 384.301 354.206 384.259C354.237 384.217 354.276 384.185 354.313 384.164C354.383 384.124 354.437 384.125 354.438 384.125C354.442 384.125 354.432 384.125 354.405 384.119C354.379 384.113 354.35 384.104 354.319 384.093C354.29 384.082 354.263 384.071 354.245 384.063C354.236 384.059 354.229 384.055 354.225 384.054C354.224 384.053 354.222 384.052 354.222 384.052C354.222 384.052 354.222 384.052 354.222 384.052C354.222 384.052 354.222 384.052 354.223 384.052C354.223 384.052 354.223 384.052 354.223 384.053C354.223 384.053 354.223 384.053 354.223 384.053C354.223 384.053 354.224 384.053 354 384.5ZM399.193 372.462L399.143 372.959C399.262 372.971 399.354 372.981 399.416 372.987C399.447 372.99 399.471 372.993 399.487 372.995C399.494 372.995 399.5 372.996 399.504 372.996C399.506 372.997 399.508 372.997 399.509 372.997C399.509 372.997 399.509 372.997 399.51 372.997C399.51 372.997 399.51 372.997 399.51 372.997C399.51 372.997 399.51 372.997 399.51 372.997C399.51 372.997 399.51 372.997 399.51 372.997C399.51 372.997 399.51 372.997 399.564 372.5C399.618 372.003 399.618 372.003 399.618 372.003C399.618 372.003 399.618 372.003 399.618 372.003C399.618 372.003 399.618 372.003 399.618 372.003C399.618 372.003 399.618 372.003 399.618 372.003C399.618 372.003 399.618 372.003 399.617 372.003C399.617 372.003 399.617 372.003 399.616 372.003C399.615 372.003 399.613 372.002 399.611 372.002C399.607 372.002 399.601 372.001 399.593 372C399.576 371.998 399.552 371.996 399.52 371.993C399.457 371.986 399.364 371.976 399.243 371.964L399.193 372.462ZM339.886 360.807L339.51 361.136C339.57 361.204 339.618 361.257 339.653 361.294C339.67 361.312 339.683 361.326 339.693 361.336C339.698 361.341 339.702 361.345 339.705 361.348C339.707 361.35 339.708 361.351 339.709 361.352C339.709 361.352 339.71 361.353 339.71 361.353C339.71 361.353 339.71 361.354 339.71 361.354C339.711 361.354 339.711 361.354 339.711 361.354C339.711 361.354 339.711 361.354 339.711 361.354C339.711 361.354 339.711 361.354 339.711 361.354C339.711 361.354 339.711 361.354 340.064 361C340.417 360.646 340.417 360.646 340.417 360.646C340.417 360.646 340.417 360.646 340.417 360.646C340.417 360.646 340.417 360.646 340.417 360.646C340.417 360.646 340.417 360.646 340.417 360.646C340.417 360.646 340.417 360.646 340.417 360.646C340.417 360.646 340.417 360.646 340.417 360.646C340.417 360.646 340.417 360.646 340.417 360.646C340.415 360.644 340.413 360.642 340.41 360.639C340.404 360.633 340.394 360.623 340.381 360.608C340.354 360.58 340.314 360.536 340.263 360.478L339.886 360.807ZM353.064 324.5C352.565 324.536 352.565 324.536 352.565 324.536C352.565 324.536 352.565 324.536 352.565 324.536C352.565 324.536 352.565 324.536 352.565 324.536C352.565 324.536 352.565 324.536 352.565 324.536C352.565 324.536 352.565 324.536 352.565 324.537C352.565 324.537 352.565 324.537 352.565 324.538C352.565 324.539 352.566 324.541 352.566 324.544C352.566 324.549 352.567 324.557 352.567 324.568C352.569 324.589 352.571 324.622 352.574 324.664C352.58 324.749 352.588 324.874 352.597 325.036L353.096 325.006L353.596 324.977C353.586 324.812 353.578 324.685 353.572 324.598C353.569 324.554 353.567 324.521 353.565 324.498C353.564 324.487 353.564 324.479 353.563 324.473C353.563 324.47 353.563 324.468 353.563 324.466C353.563 324.465 353.563 324.465 353.563 324.464C353.563 324.464 353.563 324.464 353.563 324.464C353.563 324.464 353.563 324.464 353.563 324.464C353.563 324.464 353.563 324.464 353.563 324.464C353.563 324.464 353.563 324.464 353.563 324.464C353.563 324.464 353.563 324.464 353.064 324.5ZM303.064 298C302.786 298.416 302.786 298.416 302.786 298.416C302.786 298.416 302.786 298.416 302.786 298.416C302.786 298.416 302.786 298.416 302.786 298.416C302.786 298.416 302.786 298.416 302.786 298.415C302.785 298.415 302.785 298.415 302.785 298.415C302.785 298.415 302.785 298.415 302.785 298.415C302.784 298.415 302.785 298.415 302.786 298.416C302.788 298.417 302.792 298.42 302.799 298.425C302.812 298.434 302.834 298.45 302.865 298.474C302.927 298.522 303.025 298.6 303.158 298.717L303.487 298.34L303.815 297.963C303.667 297.833 303.553 297.742 303.474 297.681C303.435 297.651 303.404 297.628 303.382 297.612C303.371 297.604 303.362 297.598 303.355 297.593C303.352 297.591 303.349 297.589 303.346 297.588C303.345 297.587 303.344 297.586 303.343 297.585C303.343 297.585 303.343 297.585 303.342 297.585C303.342 297.585 303.342 297.584 303.342 297.584C303.342 297.584 303.341 297.584 303.341 297.584C303.341 297.584 303.341 297.584 303.341 297.584C303.341 297.584 303.341 297.584 303.064 298ZM314.075 314.484L313.625 314.703C313.78 315.02 313.902 315.273 313.985 315.446C314.026 315.533 314.058 315.6 314.079 315.645C314.09 315.667 314.098 315.685 314.103 315.696C314.106 315.702 314.108 315.706 314.109 315.709C314.11 315.71 314.111 315.711 314.111 315.712C314.111 315.712 314.111 315.712 314.111 315.713C314.111 315.713 314.111 315.713 314.111 315.713C314.111 315.713 314.111 315.713 314.111 315.713C314.111 315.713 314.111 315.713 314.111 315.713C314.111 315.713 314.111 315.713 314.564 315.5C315.016 315.287 315.016 315.287 315.016 315.287C315.016 315.287 315.016 315.287 315.016 315.287C315.016 315.287 315.016 315.287 315.016 315.287C315.016 315.287 315.016 315.287 315.016 315.287C315.016 315.286 315.016 315.286 315.016 315.286C315.015 315.285 315.015 315.284 315.014 315.282C315.012 315.279 315.01 315.275 315.008 315.269C315.002 315.257 314.994 315.239 314.983 315.216C314.961 315.17 314.929 315.103 314.887 315.015C314.803 314.839 314.68 314.584 314.524 314.265L314.075 314.484ZM339.674 322.948C340.089 322.67 340.089 322.67 340.089 322.67C340.089 322.67 340.089 322.67 340.089 322.67C340.089 322.67 340.089 322.67 340.089 322.67C340.089 322.67 340.089 322.67 340.089 322.67C340.089 322.67 340.089 322.67 340.089 322.67C340.089 322.67 340.089 322.669 340.089 322.669C340.088 322.669 340.088 322.668 340.088 322.668C340.087 322.667 340.086 322.665 340.084 322.662C340.081 322.658 340.076 322.651 340.07 322.642C340.058 322.623 340.04 322.597 340.016 322.563L339.604 322.846L339.192 323.129C339.214 323.161 339.231 323.186 339.242 323.203C339.248 323.211 339.252 323.217 339.255 323.221C339.256 323.223 339.257 323.225 339.258 323.226C339.258 323.226 339.258 323.227 339.259 323.227C339.259 323.227 339.259 323.227 339.259 323.227C339.259 323.227 339.259 323.227 339.259 323.227C339.259 323.227 339.259 323.227 339.259 323.227C339.259 323.227 339.259 323.227 339.259 323.227C339.259 323.227 339.259 323.227 339.259 323.227C339.259 323.227 339.259 323.227 339.674 322.948ZM314.075 314.484L314.06 313.984C313.895 313.989 313.767 313.993 313.679 313.996C313.636 313.997 313.602 313.998 313.58 313.999C313.569 313.999 313.56 314 313.554 314C313.551 314 313.549 314 313.548 314C313.547 314 313.546 314 313.546 314C313.546 314 313.546 314 313.546 314C313.546 314 313.546 314 313.545 314C313.545 314 313.545 314 313.545 314V314C313.545 314 313.545 314 313.564 314.5C313.582 315 313.582 315 313.582 315C313.582 315 313.582 315 313.582 315C313.582 315 313.583 315 313.583 315C313.583 315 313.584 315 313.584 315C313.586 315 313.588 314.999 313.59 314.999C313.596 314.999 313.604 314.999 313.615 314.998C313.637 314.998 313.67 314.997 313.713 314.995C313.799 314.992 313.926 314.988 314.09 314.983L314.075 314.484ZM339.064 322.5C338.775 322.908 338.775 322.908 338.775 322.908C338.775 322.908 338.775 322.908 338.775 322.908C338.775 322.908 338.775 322.908 338.775 322.908C338.775 322.908 338.776 322.908 338.776 322.909C338.776 322.909 338.776 322.909 338.776 322.909C338.777 322.91 338.778 322.91 338.779 322.911C338.781 322.912 338.784 322.914 338.787 322.917C338.794 322.922 338.804 322.929 338.817 322.937C338.843 322.955 338.881 322.98 338.929 323.012C339.026 323.076 339.166 323.166 339.346 323.274L339.604 322.846L339.862 322.417C339.695 322.317 339.565 322.234 339.479 322.177C339.435 322.148 339.403 322.126 339.382 322.112C339.371 322.105 339.363 322.099 339.358 322.096C339.356 322.094 339.354 322.093 339.353 322.092C339.353 322.092 339.352 322.092 339.352 322.092C339.352 322.092 339.352 322.092 339.352 322.092C339.352 322.092 339.352 322.092 339.352 322.092C339.352 322.092 339.353 322.092 339.353 322.092C339.353 322.092 339.353 322.092 339.353 322.092C339.353 322.092 339.353 322.092 339.064 322.5ZM353.096 325.006L353.098 325.506C353.553 325.505 353.92 325.503 354.173 325.502C354.3 325.502 354.398 325.501 354.465 325.501C354.498 325.5 354.524 325.5 354.541 325.5C354.55 325.5 354.556 325.5 354.56 325.5C354.562 325.5 354.564 325.5 354.565 325.5C354.566 325.5 354.566 325.5 354.566 325.5C354.567 325.5 354.567 325.5 354.567 325.5C354.567 325.5 354.567 325.5 354.567 325.5H354.567C354.567 325.5 354.567 325.5 354.564 325C354.561 324.5 354.561 324.5 354.561 324.5H354.561C354.561 324.5 354.561 324.5 354.561 324.5C354.561 324.5 354.561 324.5 354.56 324.5C354.56 324.5 354.56 324.5 354.559 324.5C354.558 324.5 354.557 324.5 354.554 324.5C354.55 324.5 354.544 324.5 354.535 324.5C354.518 324.5 354.493 324.5 354.46 324.501C354.393 324.501 354.295 324.502 354.169 324.502C353.915 324.503 353.549 324.505 353.095 324.506L353.096 325.006ZM345 367.5C345.34 367.867 345.34 367.867 345.34 367.867C345.34 367.867 345.34 367.867 345.34 367.867C345.34 367.867 345.34 367.867 345.34 367.867C345.34 367.866 345.34 367.866 345.34 367.866C345.341 367.866 345.341 367.865 345.342 367.865C345.344 367.863 345.346 367.861 345.349 367.858C345.355 367.853 345.364 367.844 345.377 367.833C345.401 367.81 345.438 367.776 345.486 367.732C345.583 367.643 345.726 367.512 345.911 367.343L345.574 366.974L345.237 366.604C345.051 366.774 344.907 366.906 344.809 366.996C344.76 367.041 344.723 367.075 344.698 367.098C344.686 367.11 344.676 367.118 344.67 367.124C344.667 367.127 344.664 367.129 344.663 367.131C344.662 367.132 344.661 367.132 344.661 367.133C344.661 367.133 344.66 367.133 344.66 367.133C344.66 367.133 344.66 367.133 344.66 367.133C344.66 367.133 344.66 367.133 344.66 367.133C344.66 367.133 344.66 367.133 344.66 367.133C344.66 367.133 344.66 367.133 345 367.5ZM385.2 348.93L385.11 349.422C385.226 349.443 385.315 349.46 385.374 349.472C385.404 349.478 385.426 349.482 385.441 349.485C385.448 349.487 385.454 349.488 385.457 349.489C385.459 349.489 385.46 349.489 385.461 349.489C385.461 349.489 385.462 349.489 385.462 349.489C385.462 349.489 385.462 349.489 385.462 349.489C385.462 349.489 385.462 349.489 385.462 349.489C385.462 349.489 385.462 349.489 385.462 349.489C385.462 349.489 385.462 349.489 385.462 349.489C385.462 349.489 385.462 349.489 385.564 349C385.666 348.51 385.666 348.51 385.666 348.51C385.666 348.51 385.666 348.51 385.666 348.51C385.666 348.51 385.666 348.51 385.666 348.51C385.666 348.51 385.666 348.51 385.666 348.51C385.665 348.51 385.665 348.51 385.665 348.51C385.665 348.51 385.664 348.51 385.664 348.51C385.662 348.51 385.661 348.509 385.659 348.509C385.654 348.508 385.648 348.507 385.639 348.505C385.623 348.502 385.598 348.497 385.567 348.491C385.503 348.478 385.41 348.46 385.29 348.438L385.2 348.93ZM385.064 349C384.939 349.484 384.939 349.484 384.939 349.484C384.939 349.484 384.939 349.484 384.939 349.484C384.939 349.484 384.939 349.484 384.939 349.484C384.939 349.484 384.939 349.484 384.939 349.484C384.938 349.484 384.938 349.484 384.938 349.484C384.938 349.484 384.938 349.484 384.938 349.484C384.938 349.484 384.938 349.484 384.938 349.484C384.939 349.484 384.941 349.485 384.944 349.486C384.95 349.487 384.96 349.49 384.974 349.494C385.001 349.502 385.045 349.516 385.101 349.535L385.261 349.061L385.421 348.587C385.352 348.564 385.296 348.547 385.257 348.535C385.237 348.529 385.222 348.525 385.21 348.522C385.204 348.52 385.2 348.519 385.196 348.518C385.194 348.517 385.193 348.517 385.192 348.517C385.191 348.517 385.191 348.516 385.19 348.516C385.19 348.516 385.19 348.516 385.189 348.516C385.189 348.516 385.189 348.516 385.189 348.516C385.189 348.516 385.189 348.516 385.189 348.516C385.189 348.516 385.189 348.516 385.189 348.516C385.189 348.516 385.189 348.516 385.064 349ZM381.804 364.912L381.735 364.417C381.643 364.43 381.572 364.438 381.526 364.443C381.503 364.445 381.485 364.447 381.475 364.448C381.469 364.448 381.466 364.448 381.464 364.448C381.463 364.449 381.462 364.449 381.462 364.449C381.462 364.449 381.462 364.449 381.462 364.449C381.462 364.449 381.462 364.449 381.462 364.449C381.462 364.449 381.462 364.449 381.462 364.449C381.462 364.449 381.462 364.449 381.462 364.449C381.462 364.449 381.463 364.449 381.463 364.449C381.463 364.449 381.463 364.449 381.496 364.947C381.529 365.446 381.529 365.446 381.529 365.446C381.529 365.446 381.529 365.446 381.529 365.446C381.529 365.446 381.529 365.446 381.529 365.446C381.529 365.446 381.529 365.446 381.529 365.446C381.529 365.446 381.53 365.446 381.53 365.446C381.531 365.446 381.531 365.446 381.532 365.446C381.534 365.446 381.536 365.446 381.538 365.446C381.543 365.445 381.549 365.445 381.558 365.444C381.574 365.443 381.597 365.441 381.626 365.438C381.685 365.432 381.769 365.422 381.874 365.407L381.804 364.912ZM381.677 364.785L381.635 365.283C381.716 365.29 381.779 365.296 381.821 365.3C381.842 365.302 381.858 365.303 381.869 365.304C381.874 365.305 381.878 365.305 381.881 365.305C381.882 365.305 381.883 365.306 381.884 365.306C381.884 365.306 381.884 365.306 381.884 365.306C381.884 365.306 381.884 365.306 381.884 365.306C381.884 365.306 381.884 365.306 381.884 365.306C381.884 365.306 381.884 365.306 381.884 365.306C381.884 365.306 381.884 365.306 381.934 364.808C381.983 364.311 381.983 364.311 381.983 364.311C381.983 364.311 381.983 364.311 381.983 364.311C381.983 364.311 381.983 364.311 381.983 364.311C381.983 364.311 381.983 364.311 381.983 364.311C381.983 364.311 381.982 364.311 381.982 364.311C381.982 364.31 381.982 364.31 381.981 364.31C381.98 364.31 381.979 364.31 381.978 364.31C381.975 364.31 381.97 364.309 381.964 364.309C381.952 364.308 381.935 364.306 381.913 364.304C381.868 364.3 381.803 364.294 381.719 364.287L381.677 364.785ZM385.064 348.64L384.611 348.852L384.747 349.142L385.2 348.93L385.653 348.718L385.517 348.428L385.064 348.64ZM385.261 349.061L384.808 349.273L385.079 349.852L385.532 349.64L385.985 349.428L385.714 348.849L385.261 349.061ZM382.032 365.14L382.385 364.786L382.158 364.559L381.804 364.912L381.451 365.266L381.678 365.493L382.032 365.14ZM381.677 364.785L382.031 364.432L381.885 364.286L381.532 364.64L381.178 364.993L381.324 365.139L381.677 364.785ZM399.032 372.14L398.585 372.363L398.746 372.685L399.193 372.462L399.64 372.238L399.479 371.916L399.032 372.14ZM399.225 372.526L398.778 372.75L399.085 373.364L399.532 373.14L399.979 372.916L399.672 372.302L399.225 372.526ZM399.564 387.154L399.204 387.501L399.48 387.787L399.84 387.441L400.2 387.094L399.924 386.807L399.564 387.154ZM399.907 387.51L399.547 387.857L399.672 387.987L400.032 387.64L400.392 387.293L400.267 387.163L399.907 387.51ZM312.532 458.64L312.042 458.738L312.174 459.398L312.664 459.3L313.154 459.202L313.022 458.542L312.532 458.64ZM312.924 460.599L312.433 460.697L312.542 461.238L313.032 461.14L313.522 461.042L313.414 460.501L312.924 460.599ZM275.032 567.14L275.385 567.493L276.025 566.854L275.672 566.5L275.318 566.146L274.678 566.786L275.032 567.14ZM276.084 566.087L276.438 566.441L276.885 565.993L276.532 565.64L276.178 565.286L275.731 565.734L276.084 566.087ZM224.532 535.14L224.178 535.493L224.35 535.665L224.703 535.311L225.057 534.957L224.885 534.786L224.532 535.14ZM224.741 535.349L224.388 535.703L224.678 535.993L225.032 535.64L225.385 535.286L225.095 534.996L224.741 535.349ZM159.064 537.5C158.702 537.845 158.702 537.845 158.702 537.845C158.702 537.845 158.702 537.845 158.702 537.845C158.702 537.845 158.702 537.845 158.702 537.845C158.702 537.845 158.702 537.845 158.702 537.845C158.702 537.845 158.702 537.845 158.703 537.846C158.703 537.846 158.704 537.847 158.704 537.847C158.706 537.849 158.708 537.851 158.71 537.853C158.715 537.858 158.722 537.866 158.731 537.875C158.749 537.894 158.776 537.921 158.812 537.957C158.882 538.028 158.986 538.131 159.123 538.263L159.47 537.903L159.817 537.543C159.685 537.416 159.586 537.318 159.521 537.252C159.488 537.219 159.464 537.194 159.448 537.178C159.44 537.17 159.434 537.164 159.431 537.16C159.429 537.158 159.428 537.157 159.427 537.156C159.426 537.156 159.426 537.155 159.426 537.155C159.426 537.155 159.426 537.155 159.426 537.155C159.426 537.155 159.426 537.155 159.426 537.155C159.426 537.155 159.426 537.155 159.426 537.155C159.426 537.155 159.426 537.155 159.426 537.155C159.426 537.155 159.426 537.155 159.064 537.5ZM158.632 536.879L158.214 537.154C158.363 537.38 158.492 537.559 158.586 537.683C158.632 537.745 158.67 537.793 158.696 537.826C158.709 537.843 158.72 537.856 158.727 537.865C158.731 537.87 158.734 537.873 158.736 537.876C158.737 537.877 158.738 537.879 158.739 537.879C158.739 537.88 158.74 537.88 158.74 537.881C158.74 537.881 158.74 537.881 158.74 537.881C158.74 537.881 158.74 537.881 158.74 537.881C158.741 537.881 158.741 537.881 158.741 537.881C158.741 537.881 158.741 537.881 159.124 537.561C159.508 537.24 159.508 537.24 159.508 537.24C159.508 537.24 159.508 537.24 159.508 537.24C159.508 537.24 159.508 537.241 159.508 537.241C159.508 537.241 159.508 537.241 159.509 537.241C159.509 537.241 159.509 537.241 159.509 537.241C159.508 537.241 159.508 537.24 159.508 537.24C159.507 537.238 159.505 537.236 159.502 537.233C159.497 537.227 159.49 537.217 159.479 537.204C159.458 537.177 159.426 537.136 159.385 537.082C159.303 536.973 159.186 536.811 159.049 536.604L158.632 536.879ZM169.032 526.64L169.385 526.993L169.699 526.68L169.346 526.326L168.992 525.973L168.678 526.286L169.032 526.64ZM169.369 526.303L169.722 526.657L169.885 526.493L169.532 526.14L169.178 525.786L169.015 525.95L169.369 526.303ZM215.064 521.887L214.639 522.151L214.866 522.516L215.29 522.251L215.715 521.987L215.488 521.623L215.064 521.887ZM215.316 522.292L214.891 522.556L215.107 522.904L215.532 522.64L215.957 522.376L215.74 522.028L215.316 522.292ZM233.032 491.64L232.678 491.993L232.786 492.101L233.14 491.748L233.493 491.394L233.385 491.286L233.032 491.64ZM233.162 491.77L232.809 492.124L233.178 492.493L233.532 492.14L233.885 491.786L233.516 491.417L233.162 491.77ZM280.032 395.14L279.678 395.493L279.863 395.678L280.217 395.325L280.57 394.971L280.385 394.786L280.032 395.14ZM280.272 395.38L279.918 395.733L280.178 395.993L280.532 395.64L280.885 395.286L280.625 395.026L280.272 395.38ZM294.569 355.64V356.14H295.032V355.64V355.14H294.569V355.64ZM303.545 299.738C303.112 299.488 303.112 299.488 303.112 299.488C303.112 299.488 303.112 299.488 303.112 299.488C303.112 299.488 303.112 299.488 303.112 299.488C303.112 299.488 303.112 299.488 303.112 299.488C303.112 299.488 303.112 299.488 303.112 299.489C303.111 299.489 303.111 299.489 303.111 299.49C303.11 299.491 303.109 299.493 303.108 299.495C303.106 299.499 303.102 299.505 303.098 299.512C303.089 299.528 303.076 299.55 303.06 299.58C303.027 299.639 302.978 299.726 302.915 299.841L303.354 300.081L303.793 300.32C303.854 300.209 303.9 300.125 303.932 300.07C303.947 300.042 303.959 300.021 303.967 300.007C303.971 300 303.974 299.995 303.975 299.992C303.976 299.991 303.977 299.989 303.977 299.989C303.978 299.988 303.978 299.988 303.978 299.988C303.978 299.988 303.978 299.988 303.978 299.988C303.978 299.988 303.978 299.988 303.978 299.988C303.978 299.988 303.978 299.988 303.978 299.988C303.978 299.988 303.978 299.988 303.978 299.988C303.978 299.988 303.978 299.988 303.545 299.738ZM303.354 300.081L302.915 299.841C302.803 300.047 302.646 300.34 302.453 300.715L302.897 300.945L303.341 301.174C303.531 300.806 303.684 300.519 303.793 300.32L303.354 300.081ZM303.487 298.34L303.974 298.45L304.02 298.25L303.532 298.14L303.044 298.029L302.999 298.229L303.487 298.34ZM339.532 360.36C339.183 360.718 339.183 360.718 339.183 360.718V360.718C339.183 360.718 339.183 360.718 339.183 360.718C339.183 360.718 339.183 360.718 339.183 360.718C339.183 360.718 339.183 360.719 339.183 360.719C339.184 360.719 339.184 360.719 339.185 360.72C339.186 360.721 339.187 360.722 339.19 360.725C339.194 360.729 339.201 360.736 339.21 360.744C339.228 360.762 339.254 360.788 339.29 360.823C339.36 360.892 339.463 360.995 339.596 361.128L339.95 360.775L340.304 360.422C340.17 360.287 340.064 360.182 339.992 360.111C339.956 360.076 339.928 360.049 339.91 360.03C339.9 360.021 339.893 360.014 339.888 360.009C339.886 360.007 339.884 360.005 339.883 360.004C339.882 360.003 339.882 360.003 339.881 360.002C339.881 360.002 339.881 360.002 339.881 360.002C339.881 360.002 339.881 360.002 339.881 360.002C339.881 360.002 339.881 360.002 339.881 360.002C339.881 360.002 339.881 360.002 339.881 360.002C339.881 360.002 339.881 360.002 339.532 360.36ZM345.574 366.974L345.187 367.29C345.328 367.463 345.469 367.637 345.61 367.813L346 367.5L346.39 367.187C346.248 367.009 346.104 366.832 345.961 366.657L345.574 366.974ZM346 368.5L345.553 368.724C346.046 369.71 346.577 370.934 347.098 372.121C347.614 373.296 348.123 374.444 348.562 375.241L349 375L349.438 374.759C349.025 374.009 348.535 372.907 348.013 371.719C347.497 370.543 346.954 369.29 346.447 368.276L346 368.5ZM349 375L348.562 375.241C350.082 378.002 351.33 380.373 352.198 382.054C352.631 382.894 352.97 383.561 353.2 384.018C353.315 384.247 353.403 384.423 353.462 384.542C353.492 384.601 353.514 384.646 353.529 384.676C353.537 384.691 353.542 384.702 353.546 384.71C353.548 384.714 353.549 384.716 353.55 384.718C353.551 384.719 353.551 384.72 353.551 384.72C353.551 384.721 353.551 384.721 353.551 384.721C353.551 384.721 353.551 384.721 353.551 384.721C353.551 384.721 353.551 384.721 354 384.5C354.449 384.279 354.449 384.279 354.448 384.279C354.448 384.279 354.448 384.279 354.448 384.279C354.448 384.279 354.448 384.278 354.448 384.278C354.448 384.278 354.447 384.277 354.447 384.276C354.446 384.274 354.445 384.271 354.443 384.267C354.439 384.259 354.433 384.248 354.425 384.232C354.41 384.201 354.388 384.156 354.358 384.096C354.298 383.976 354.209 383.799 354.094 383.569C353.862 383.109 353.522 382.438 353.086 381.595C352.215 379.908 350.963 377.529 349.438 374.759L349 375ZM294.032 355.64V356.14H294.537V355.64V355.14H294.032V355.64ZM340.5 360.5L340.276 360.053L339.726 360.328L339.95 360.775L340.174 361.222L340.724 360.947L340.5 360.5ZM339.886 360.807L339.663 360.36L339.276 360.553L339.5 361L339.724 361.447L340.11 361.254L339.886 360.807ZM295.564 323L294.579 322.829L295.564 323ZM294.537 355.64L293.54 355.717L293.612 356.64H294.537V355.64ZM294.569 355.64L295.568 355.606L295.536 354.64H294.569V355.64ZM292.564 376L291.605 375.718L292.564 376ZM280.217 395.325L279.461 394.67L278.851 395.374L279.51 396.032L280.217 395.325ZM280.272 395.38L280.974 396.092L281.691 395.384L280.979 394.672L280.272 395.38ZM265.564 412L264.744 411.427L265.564 412ZM256.064 432.5L257.008 432.83L257.012 432.819L256.064 432.5ZM245.564 461.5L244.63 461.144L245.564 461.5ZM233.162 491.77L232.455 492.477L233.501 493.523L234.082 492.163L233.162 491.77ZM215.29 522.251L214.547 521.583L214.045 522.142L214.441 522.78L215.29 522.251ZM224.064 510.5L224.903 511.044L224.064 510.5ZM233.14 491.748L233.847 491.041L232.757 489.951L232.206 491.39L233.14 491.748ZM169.369 526.303L170.065 525.585L169.358 524.9L168.662 525.596L169.369 526.303ZM193.564 535L193.382 534.017L193.564 535ZM215.316 522.292L216.071 522.948L216.555 522.391L216.165 521.764L215.316 522.292ZM169.346 526.326L168.747 527.127L169.441 527.645L170.053 527.033L169.346 526.326ZM159.564 527L158.931 526.226L159.564 527ZM188.564 550.5L188.615 549.501L188.564 550.5ZM224.703 535.311L225.41 534.604L224.759 533.952L224.056 534.549L224.703 535.311ZM224.741 535.349L224.034 536.056L224.696 536.719L225.401 536.101L224.741 535.349ZM240.564 515.5L241.388 516.067L240.564 515.5ZM253.711 493.734L254.474 493.088L253.369 491.785L252.774 493.385L253.711 493.734ZM245.217 520.548L244.65 519.725L244.066 520.126L244.252 520.81L245.217 520.548ZM253.711 507.638L254.673 507.913L253.711 507.638ZM248.064 542.5L247.065 542.452L248.064 542.5ZM252.235 566.5L251.283 566.805L251.505 567.5H252.235V566.5ZM275.672 566.5V567.5H276.086L276.379 567.207L275.672 566.5ZM264.504 551.652L263.507 551.727L263.565 552.508L264.338 552.638L264.504 551.652ZM273.564 556.5L272.732 557.055L273.564 556.5ZM276.084 566.087L276.792 566.794L277.096 566.49L277.084 566.059L276.084 566.087ZM263.147 533.605L262.583 532.779L262.107 533.105L262.15 533.68L263.147 533.605ZM288.5 512.5L289.238 511.826L288.539 511.06L287.799 511.786L288.5 512.5ZM276.064 524L276.689 524.781L276.064 524ZM290.564 515L289.723 515.541H289.723L290.564 515ZM292.493 534.769L291.506 534.609L291.418 535.155L291.833 535.52L292.493 534.769ZM307.064 548.5L307.794 547.817L307.064 548.5ZM319.688 564L318.89 564.602L319.19 565H319.688V564ZM345.343 564V565H346.136L346.317 564.228L345.343 564ZM343.064 552.5L343.838 551.867L343.064 552.5ZM328.004 547.49L327.326 548.225L327.618 548.494L328.016 548.49L328.004 547.49ZM316.241 530.527L315.305 530.177L315.178 530.514L315.296 530.855L316.241 530.527ZM320.564 539.5L321.383 538.926L320.564 539.5ZM324.064 507L323.096 506.75L324.064 507ZM324.064 481L323.124 481.342L323.127 481.349L323.129 481.356L324.064 481ZM312.924 460.599L311.943 460.795L311.977 460.965L312.067 461.114L312.924 460.599ZM319.564 471.5L318.716 472.03L319.564 471.5ZM312.664 459.3L312.057 458.506L311.561 458.885L311.683 459.496L312.664 459.3ZM338.064 432L337.138 431.623L338.064 432ZM341.054 413.483L341.69 412.711L340.107 411.407L340.054 413.457L341.054 413.483ZM384.064 390L383.439 389.219L383.432 389.225L384.064 390ZM346.064 416L346.064 415L346.064 416ZM399.907 387.51L399.972 388.508L402.121 388.368L400.628 386.817L399.907 387.51ZM399.225 372.526L398.331 372.973L398.556 373.423L399.051 373.511L399.225 372.526ZM406.064 380L405.066 379.929L406.064 380ZM399.84 387.441L399.603 386.469L397.913 386.881L399.12 388.134L399.84 387.441ZM354.5 384L353.711 383.386L354.93 384.903L354.5 384ZM386.064 372L386.139 372.997H386.139L386.064 372ZM399.193 372.462L400.087 372.014L399.841 371.522L399.293 371.467L399.193 372.462ZM346.064 348L346.435 348.928L346.442 348.926L346.449 348.923L346.064 348ZM339.886 360.807L339.134 361.465L339.643 362.047L340.334 361.701L339.886 360.807ZM353.096 325.006L354.095 324.947L354.038 324.003L353.093 324.006L353.096 325.006ZM351.564 342.5L350.702 341.993L351.564 342.5ZM303.487 298.34L304.144 297.585L302.881 296.486L302.511 298.119L303.487 298.34ZM307.564 303L306.764 303.6V303.6L307.564 303ZM314.075 314.484L313.176 314.922L313.459 315.502L314.104 315.483L314.075 314.484ZM339.604 322.846L338.779 323.411L338.902 323.59L339.088 323.702L339.604 322.846ZM333.296 315.948L333.854 315.119L333.296 315.948ZM346.564 325L346.558 326L346.564 325ZM345.574 366.974L344.8 367.607L345.468 368.423L346.248 367.713L345.574 366.974ZM366.564 350.5L367.06 351.368H367.06L366.564 350.5ZM385.2 348.93L386.105 348.506L385.887 348.039L385.38 347.946L385.2 348.93ZM385.261 349.061L384.355 349.485L384.536 349.872L384.941 350.008L385.261 349.061ZM389.564 357.5L390.547 357.684V357.684L389.564 357.5ZM381.804 364.912L381.097 365.619L381.45 365.972L381.944 365.903L381.804 364.912ZM374.488 365.033L374.77 365.992L374.488 365.033ZM381.677 364.785L382.384 364.078L382.126 363.819L381.761 363.789L381.677 364.785ZM159.47 537.903L158.696 538.536L158.734 538.582L158.777 538.624L159.47 537.903ZM158.632 536.879L157.796 537.428L157.825 537.472L157.858 537.512L158.632 536.879ZM302.897 300.945L303.786 301.403L303.844 301.29L303.872 301.165L302.897 300.945ZM339.95 360.775L340.658 360.069L340.148 359.558L339.503 359.881L339.95 360.775ZM295.564 323L294.579 322.829C292.144 336.846 293.427 354.265 293.54 355.717L294.537 355.64L295.534 355.562C295.421 354.108 294.161 336.915 296.549 323.171L295.564 323ZM294.569 355.64L293.57 355.674C293.616 357.048 293.895 367.93 291.605 375.718L292.564 376L293.523 376.282C295.917 368.145 295.614 356.958 295.568 355.606L294.569 355.64ZM292.564 376L291.605 375.718C290.566 379.247 287.887 383.593 285.238 387.306C282.608 390.992 280.089 393.945 279.461 394.67L280.217 395.325L280.973 395.979C281.621 395.231 284.186 392.225 286.866 388.468C289.527 384.739 292.383 380.159 293.523 376.282L292.564 376ZM280.272 395.38L279.569 394.668C279.042 395.188 269.495 404.631 264.744 411.427L265.564 412L266.384 412.573C271.01 405.954 280.417 396.641 280.974 396.092L280.272 395.38ZM265.564 412L264.744 411.427C262.173 415.106 259.764 420.316 258.011 424.556C257.13 426.686 256.407 428.589 255.905 429.961C255.653 430.647 255.457 431.2 255.323 431.583C255.256 431.774 255.204 431.923 255.17 432.024C255.152 432.075 255.139 432.113 255.13 432.14C255.126 432.153 255.122 432.163 255.12 432.17C255.119 432.173 255.118 432.176 255.117 432.178C255.117 432.179 255.117 432.179 255.117 432.18C255.116 432.18 255.116 432.18 255.116 432.181C255.116 432.181 255.116 432.181 256.064 432.5C257.012 432.819 257.012 432.819 257.012 432.819C257.012 432.819 257.012 432.819 257.012 432.819C257.012 432.819 257.012 432.818 257.012 432.817C257.013 432.816 257.013 432.814 257.014 432.811C257.017 432.805 257.02 432.796 257.024 432.783C257.032 432.759 257.045 432.722 257.061 432.673C257.095 432.576 257.145 432.431 257.21 432.244C257.342 431.869 257.535 431.325 257.783 430.649C258.278 429.297 258.991 427.42 259.859 425.32C261.603 421.102 263.944 416.063 266.384 412.573L265.564 412ZM256.064 432.5C255.12 432.17 255.12 432.17 255.12 432.17C255.12 432.171 255.12 432.171 255.12 432.171C255.119 432.171 255.119 432.172 255.119 432.173C255.118 432.175 255.117 432.179 255.116 432.183C255.113 432.191 255.108 432.204 255.102 432.22C255.091 432.254 255.073 432.303 255.05 432.369C255.005 432.499 254.937 432.693 254.849 432.943C254.674 433.443 254.418 434.17 254.098 435.08C253.457 436.898 252.556 439.442 251.519 442.346C249.443 448.155 246.821 455.397 244.63 461.144L245.564 461.5L246.498 461.856C248.698 456.089 251.326 448.831 253.402 443.018C254.441 440.112 255.342 437.565 255.984 435.744C256.305 434.834 256.561 434.106 256.736 433.605C256.824 433.354 256.892 433.161 256.938 433.03C256.961 432.964 256.979 432.914 256.99 432.881C256.996 432.864 257.001 432.851 257.003 432.843C257.005 432.838 257.006 432.835 257.007 432.833C257.007 432.832 257.007 432.831 257.008 432.831C257.008 432.83 257.008 432.83 257.008 432.83C257.008 432.83 257.008 432.83 256.064 432.5ZM245.564 461.5L244.63 461.144C240.36 472.338 233.167 489.215 232.243 491.377L233.162 491.77L234.082 492.163C235.003 490.007 242.213 473.094 246.498 461.856L245.564 461.5ZM215.29 522.251L216.034 522.92C216.972 521.877 220.554 517.758 224.903 511.044L224.064 510.5L223.225 509.956C218.943 516.565 215.429 520.602 214.547 521.583L215.29 522.251ZM224.064 510.5L224.903 511.044C229.402 504.098 233.42 493.81 234.074 492.106L233.14 491.748L232.206 491.39C231.548 493.107 227.595 503.209 223.225 509.956L224.064 510.5ZM169.369 526.303L168.673 527.021C169.641 527.959 172.722 530.769 177.133 533.061C181.542 535.353 187.358 537.166 193.746 535.983L193.564 535L193.382 534.017C187.584 535.09 182.232 533.457 178.055 531.286C173.88 529.117 170.956 526.45 170.065 525.585L169.369 526.303ZM193.564 535L193.746 535.983C206.25 533.668 214.543 524.706 216.071 522.948L215.316 522.292L214.561 521.637C213.11 523.306 205.196 531.829 193.382 534.017L193.564 535ZM169.346 526.326L169.944 525.525C169.39 525.111 167.982 524.196 166.022 523.933C164.021 523.665 161.539 524.092 158.931 526.226L159.564 527L160.197 527.774C162.378 525.99 164.305 525.721 165.757 525.915C167.25 526.116 168.339 526.822 168.747 527.127L169.346 526.326ZM188.564 550.5L188.513 551.499C197.048 551.936 205.613 548.604 212.312 544.948C219.031 541.283 223.991 537.227 225.35 536.073L224.703 535.311L224.056 534.549C222.753 535.655 217.908 539.617 211.354 543.193C204.781 546.779 196.607 549.911 188.615 549.501L188.564 550.5ZM224.741 535.349L225.401 536.101C226.46 535.172 231.551 530.374 241.388 516.067L240.564 515.5L239.74 514.933C229.959 529.159 224.975 533.814 224.082 534.597L224.741 535.349ZM240.564 515.5L241.388 516.067C246.902 508.046 250.206 502.577 252.136 499.103C253.102 497.365 253.724 496.125 254.108 495.312C254.3 494.906 254.432 494.606 254.518 494.404C254.56 494.303 254.592 494.227 254.613 494.174C254.623 494.147 254.632 494.126 254.637 494.111C254.64 494.104 254.643 494.098 254.644 494.093C254.645 494.091 254.646 494.089 254.647 494.087C254.647 494.086 254.647 494.086 254.647 494.085C254.647 494.085 254.648 494.084 254.648 494.084C254.648 494.084 254.648 494.083 253.711 493.734C252.774 493.385 252.774 493.385 252.774 493.385C252.774 493.385 252.774 493.384 252.774 493.384C252.774 493.384 252.774 493.384 252.774 493.384C252.774 493.383 252.774 493.383 252.774 493.384C252.774 493.385 252.773 493.387 252.771 493.391C252.768 493.399 252.763 493.413 252.755 493.432C252.74 493.471 252.714 493.535 252.677 493.623C252.602 493.799 252.48 494.074 252.299 494.458C251.936 495.227 251.335 496.428 250.388 498.132C248.495 501.54 245.226 506.954 239.74 514.933L240.564 515.5ZM245.217 520.548L245.784 521.372C247.929 519.895 252.37 515.99 254.673 507.913L253.711 507.638L252.749 507.364C250.598 514.912 246.489 518.458 244.65 519.725L245.217 520.548ZM253.711 507.638L254.673 507.913C256.188 502.598 256.21 498.968 255.809 496.616C255.609 495.44 255.303 494.59 255.032 494.016C254.897 493.73 254.77 493.513 254.671 493.36C254.622 493.284 254.579 493.223 254.545 493.178C254.528 493.156 254.514 493.137 254.502 493.122C254.496 493.114 254.49 493.108 254.486 493.102C254.483 493.099 254.481 493.096 254.479 493.094C254.478 493.093 254.477 493.092 254.476 493.091C254.476 493.09 254.475 493.089 254.475 493.089C254.474 493.088 254.474 493.088 253.711 493.734C252.948 494.381 252.948 494.38 252.947 494.38C252.947 494.379 252.946 494.379 252.946 494.378C252.945 494.377 252.944 494.377 252.944 494.376C252.942 494.374 252.941 494.373 252.94 494.372C252.939 494.37 252.937 494.368 252.937 494.367C252.936 494.366 252.938 494.368 252.942 494.374C252.95 494.385 252.968 494.41 252.994 494.45C253.045 494.529 253.127 494.667 253.224 494.871C253.416 495.277 253.667 495.953 253.837 496.952C254.178 498.951 254.2 502.273 252.749 507.364L253.711 507.638ZM245.217 520.548L244.252 520.81C244.917 523.263 247.494 533.449 247.065 542.452L248.064 542.5L249.063 542.548C249.508 533.206 246.853 522.758 246.182 520.286L245.217 520.548ZM248.064 542.5L247.065 542.452C246.634 551.508 250.182 563.365 251.283 566.805L252.235 566.5L253.187 566.195C252.078 562.729 248.651 551.196 249.063 542.548L248.064 542.5ZM252.235 566.5V567.5H275.672V566.5V565.5H252.235V566.5ZM264.504 551.652L264.338 552.638C265.429 552.821 267.055 553.189 268.658 553.895C270.267 554.604 271.775 555.619 272.732 557.055L273.564 556.5L274.396 555.945C273.149 554.075 271.264 552.858 269.464 552.064C267.656 551.268 265.854 550.865 264.67 550.665L264.504 551.652ZM273.564 556.5L272.732 557.055C274.585 559.835 275.018 563.75 275.085 566.116L276.084 566.087L277.084 566.059C277.015 563.63 276.581 559.223 274.396 555.945L273.564 556.5ZM263.147 533.605L262.15 533.68L263.507 551.727L264.504 551.652L265.501 551.577L264.144 533.53L263.147 533.605ZM288.5 512.5L287.799 511.786C286.575 512.988 281.916 518.038 275.439 523.219L276.064 524L276.689 524.781C283.27 519.516 288.048 514.346 289.201 513.214L288.5 512.5ZM276.064 524L275.439 523.219C269.347 528.093 264.249 531.641 262.583 532.779L263.147 533.605L263.711 534.431C265.403 533.275 270.545 529.696 276.689 524.781L276.064 524ZM288.5 512.5L287.762 513.174C288.496 513.979 289.332 514.932 289.723 515.541L290.564 515L291.405 514.459C290.906 513.683 289.949 512.604 289.238 511.826L288.5 512.5ZM290.564 515L289.723 515.541C291.466 518.252 292.074 522.163 292.146 525.919C292.216 529.641 291.759 533.042 291.506 534.609L292.493 534.769L293.481 534.928C293.743 533.301 294.219 529.77 294.145 525.881C294.072 522.029 293.458 517.652 291.405 514.459L290.564 515ZM292.493 534.769L291.833 535.52C293.586 537.06 301.767 544.299 306.333 549.183L307.064 548.5L307.794 547.817C303.149 542.849 294.891 535.545 293.153 534.017L292.493 534.769ZM307.064 548.5L306.333 549.183C310.789 553.948 317.263 562.448 318.89 564.602L319.688 564L320.486 563.397C318.872 561.259 312.335 552.673 307.794 547.817L307.064 548.5ZM319.688 564V565H345.343V564V563H319.688V564ZM345.343 564L346.317 564.228C346.836 562.014 347.611 556.479 343.838 551.867L343.064 552.5L342.29 553.133C345.455 557.001 344.848 561.729 344.37 563.772L345.343 564ZM343.064 552.5L343.838 551.867C341.639 549.18 338.123 547.858 335.044 547.192C331.934 546.52 329.076 546.478 327.993 546.49L328.004 547.49L328.016 548.49C329.026 548.478 331.717 548.519 334.622 549.147C337.559 549.782 340.525 550.977 342.29 553.133L343.064 552.5ZM316.241 530.527L315.296 530.855C315.814 532.352 317.455 536.804 319.745 540.074L320.564 539.5L321.383 538.926C319.266 535.903 317.699 531.683 317.186 530.2L316.241 530.527ZM320.564 539.5L319.745 540.074C321.845 543.072 325.878 546.888 327.326 548.225L328.004 547.49L328.683 546.755C327.211 545.397 323.34 541.721 321.383 538.926L320.564 539.5ZM316.241 530.527L317.178 530.878C318.154 528.268 322.956 515.294 325.032 507.25L324.064 507L323.096 506.75C321.051 514.673 316.288 527.545 315.305 530.177L316.241 530.527ZM324.064 507L325.032 507.25C327.066 499.367 327.069 492.744 326.558 488.079C326.302 485.746 325.918 483.903 325.595 482.636C325.434 482.002 325.288 481.512 325.18 481.177C325.127 481.009 325.083 480.88 325.051 480.791C325.036 480.746 325.023 480.711 325.014 480.687C325.01 480.675 325.006 480.665 325.004 480.658C325.002 480.654 325.001 480.651 325 480.649C325 480.648 324.999 480.647 324.999 480.646C324.999 480.646 324.999 480.645 324.999 480.645C324.999 480.644 324.998 480.644 324.064 481C323.129 481.356 323.129 481.356 323.129 481.355C323.129 481.355 323.129 481.355 323.129 481.355C323.129 481.355 323.129 481.355 323.129 481.355C323.129 481.355 323.129 481.356 323.13 481.358C323.131 481.361 323.133 481.366 323.136 481.374C323.142 481.391 323.152 481.417 323.164 481.453C323.19 481.525 323.228 481.637 323.276 481.786C323.371 482.085 323.506 482.537 323.657 483.13C323.959 484.315 324.325 486.066 324.57 488.296C325.059 492.756 325.061 499.133 323.096 506.75L324.064 507ZM312.924 460.599L312.067 461.114C313.181 462.968 316.636 468.703 318.716 472.03L319.564 471.5L320.412 470.97C318.343 467.66 314.898 461.941 313.781 460.084L312.924 460.599ZM319.564 471.5L318.716 472.03C319.927 473.968 321.029 476.29 321.834 478.148C322.235 479.072 322.558 479.874 322.781 480.443C322.893 480.728 322.979 480.954 323.037 481.108C323.066 481.185 323.088 481.245 323.103 481.284C323.11 481.304 323.116 481.319 323.119 481.328C323.121 481.333 323.122 481.337 323.123 481.339C323.124 481.34 323.124 481.341 323.124 481.341C323.124 481.342 323.124 481.342 323.124 481.342C323.124 481.342 323.124 481.342 323.124 481.342C323.124 481.342 323.124 481.342 324.064 481C325.004 480.658 325.004 480.658 325.004 480.658C325.004 480.658 325.004 480.658 325.003 480.658C325.003 480.657 325.003 480.657 325.003 480.657C325.003 480.656 325.002 480.655 325.002 480.653C325.001 480.65 324.999 480.646 324.997 480.64C324.993 480.628 324.987 480.612 324.979 480.59C324.963 480.547 324.939 480.484 324.909 480.403C324.848 480.241 324.758 480.007 324.643 479.713C324.413 479.126 324.081 478.303 323.669 477.352C322.849 475.46 321.701 473.032 320.412 470.97L319.564 471.5ZM312.664 459.3L313.271 460.095C315.853 458.121 321.163 453.913 326.373 448.862C331.554 443.839 336.757 437.871 338.99 432.377L338.064 432L337.138 431.623C335.073 436.702 330.142 442.422 324.981 447.426C319.849 452.401 314.608 456.556 312.057 458.506L312.664 459.3ZM338.064 432L338.99 432.377C340.309 429.132 341.054 424.97 341.48 421.384C341.909 417.779 342.024 414.675 342.054 413.508L341.054 413.483L340.054 413.457C340.026 414.589 339.913 417.627 339.494 421.147C339.074 424.686 338.353 428.633 337.138 431.623L338.064 432ZM384.064 390C383.432 389.225 383.432 389.225 383.432 389.225C383.432 389.225 383.431 389.225 383.431 389.226C383.43 389.226 383.429 389.228 383.427 389.229C383.423 389.232 383.417 389.237 383.41 389.243C383.395 389.255 383.372 389.274 383.342 389.298C383.282 389.347 383.192 389.42 383.075 389.515C382.84 389.704 382.495 389.983 382.054 390.338C381.171 391.047 379.903 392.061 378.362 393.278C375.279 395.712 371.108 398.955 366.748 402.198C362.385 405.442 357.849 408.675 354.032 411.093C352.123 412.303 350.412 413.296 349.004 413.984C348.3 414.328 347.688 414.588 347.175 414.76C346.65 414.936 346.287 415 346.064 415L346.064 416L346.064 417C346.601 417 347.2 416.861 347.811 416.656C348.434 416.447 349.131 416.148 349.882 415.781C351.384 415.047 353.165 414.01 355.103 412.782C358.982 410.325 363.565 407.058 367.942 403.802C372.322 400.545 376.51 397.288 379.601 394.847C381.148 393.627 382.42 392.609 383.307 391.897C383.75 391.54 384.097 391.26 384.333 391.069C384.451 390.974 384.542 390.9 384.603 390.851C384.633 390.826 384.656 390.807 384.672 390.795C384.679 390.788 384.685 390.783 384.689 390.78C384.691 390.779 384.693 390.777 384.694 390.777C384.694 390.776 384.695 390.776 384.695 390.776C384.695 390.775 384.695 390.775 384.064 390ZM346.064 416L346.064 415C345.57 415 344.932 414.817 344.156 414.41C343.39 414.009 342.556 413.424 341.69 412.711L341.054 413.483L340.418 414.255C341.347 415.02 342.297 415.694 343.227 416.181C344.147 416.663 345.116 417 346.064 417L346.064 416ZM399.907 387.51L399.842 386.512C398.735 386.585 392.267 387 389.564 387V388V389C392.348 389 398.896 388.579 399.972 388.508L399.907 387.51ZM389.564 388V387C387.851 387 386.318 387.567 385.242 388.106C384.698 388.377 384.256 388.65 383.947 388.855C383.792 388.959 383.67 389.046 383.584 389.109C383.541 389.141 383.507 389.166 383.483 389.185C383.471 389.194 383.461 389.202 383.454 389.208C383.45 389.21 383.447 389.213 383.445 389.215C383.443 389.216 383.442 389.217 383.441 389.217C383.441 389.218 383.441 389.218 383.44 389.218C383.44 389.218 383.44 389.219 383.44 389.219C383.439 389.219 383.439 389.219 384.064 390C384.689 390.781 384.688 390.781 384.688 390.781C384.688 390.781 384.688 390.781 384.688 390.781C384.688 390.782 384.687 390.782 384.687 390.782C384.687 390.782 384.687 390.782 384.687 390.782C384.687 390.782 384.687 390.782 384.688 390.781C384.691 390.779 384.695 390.775 384.702 390.77C384.716 390.76 384.739 390.742 384.77 390.719C384.833 390.673 384.93 390.604 385.056 390.52C385.31 390.35 385.68 390.123 386.136 389.894C387.06 389.433 388.276 389 389.564 389V388ZM399.225 372.526L399.051 373.511C399.543 373.597 401.195 373.952 402.649 374.938C404.055 375.892 405.247 377.401 405.066 379.929L406.064 380L407.061 380.071C407.304 376.668 405.619 374.535 403.771 373.283C401.971 372.062 399.992 371.646 399.399 371.541L399.225 372.526ZM406.064 380L405.066 379.929C404.712 384.898 400.693 386.203 399.603 386.469L399.84 387.441L400.077 388.412C401.362 388.098 406.607 386.426 407.061 380.071L406.064 380ZM354.5 384L354.93 384.903C358.197 383.349 364.386 380.484 370.592 377.947C373.696 376.678 376.792 375.496 379.524 374.601C382.278 373.698 384.585 373.114 386.139 372.997L386.064 372L385.989 371.003C384.177 371.139 381.674 371.792 378.901 372.7C376.107 373.616 372.962 374.817 369.835 376.096C363.58 378.653 357.354 381.535 354.07 383.097L354.5 384ZM386.064 372L386.139 372.997C390.635 372.66 397.42 373.288 399.093 373.457L399.193 372.462L399.293 371.467C397.644 371.301 390.687 370.65 385.989 371.003L386.064 372ZM346.064 348C345.692 347.072 345.692 347.072 345.692 347.072C345.692 347.072 345.692 347.072 345.692 347.072C345.692 347.072 345.691 347.072 345.691 347.072C345.689 347.073 345.688 347.073 345.686 347.074C345.682 347.076 345.676 347.078 345.669 347.081C345.654 347.087 345.632 347.096 345.604 347.107C345.547 347.13 345.464 347.164 345.359 347.207C345.15 347.294 344.851 347.419 344.49 347.573C343.771 347.881 342.803 348.31 341.816 348.787C340.834 349.262 339.81 349.798 338.988 350.32C338.579 350.581 338.195 350.854 337.886 351.13C337.605 351.38 337.264 351.736 337.115 352.184L338.064 352.5L339.013 352.816C338.988 352.889 338.991 352.823 339.217 352.622C339.413 352.447 339.698 352.239 340.062 352.008C340.787 351.546 341.731 351.05 342.687 350.588C343.637 350.128 344.576 349.712 345.278 349.411C345.629 349.261 345.919 349.14 346.122 349.056C346.223 349.015 346.302 348.982 346.355 348.961C346.382 348.95 346.403 348.942 346.416 348.936C346.423 348.934 346.428 348.931 346.431 348.93C346.433 348.93 346.434 348.929 346.434 348.929C346.435 348.929 346.435 348.929 346.435 348.928C346.435 348.928 346.435 348.928 346.435 348.928C346.435 348.928 346.435 348.928 346.064 348ZM338.064 352.5L337.115 352.184C335.529 356.943 338.375 360.599 339.134 361.465L339.886 360.807L340.639 360.148C339.98 359.395 337.784 356.502 339.013 352.816L338.064 352.5ZM353.096 325.006L352.098 325.066C352.173 326.313 352.341 329.71 352.217 333.253C352.155 335.025 352.021 336.813 351.771 338.376C351.517 339.965 351.157 341.219 350.702 341.993L351.564 342.5L352.426 343.007C353.077 341.9 353.482 340.342 353.746 338.692C354.014 337.016 354.153 335.139 354.216 333.322C354.343 329.688 354.171 326.219 354.095 324.947L353.096 325.006ZM351.564 342.5L350.702 341.993C349.52 344.001 348.23 345.285 347.254 346.06C346.766 346.448 346.355 346.71 346.074 346.871C345.934 346.951 345.826 347.006 345.758 347.04C345.724 347.056 345.7 347.068 345.686 347.074C345.68 347.077 345.675 347.078 345.674 347.079C345.674 347.079 345.674 347.079 345.674 347.079C345.675 347.079 345.675 347.079 345.676 347.078C345.676 347.078 345.677 347.078 345.677 347.078C345.677 347.078 345.678 347.077 345.678 347.077C345.678 347.077 345.679 347.077 346.064 348C346.449 348.923 346.449 348.923 346.45 348.922C346.45 348.922 346.45 348.922 346.451 348.922C346.451 348.922 346.452 348.922 346.453 348.921C346.454 348.921 346.456 348.92 346.458 348.919C346.461 348.918 346.466 348.916 346.471 348.913C346.481 348.909 346.494 348.903 346.51 348.896C346.542 348.882 346.584 348.862 346.637 348.836C346.743 348.784 346.889 348.709 347.069 348.605C347.429 348.399 347.924 348.082 348.498 347.626C349.647 346.713 351.107 345.247 352.426 343.007L351.564 342.5ZM303.487 298.34L302.83 299.094C303.403 299.593 304.716 300.869 306.764 303.6L307.564 303L308.364 302.4C306.252 299.584 304.846 298.197 304.144 297.585L303.487 298.34ZM307.564 303L306.764 303.6C309.062 306.664 312.01 312.528 313.176 314.922L314.075 314.484L314.974 314.046C313.826 311.688 310.797 305.645 308.364 302.4L307.564 303ZM339.604 322.846L340.429 322.28C340.173 321.907 339.278 320.627 338.086 319.196C336.908 317.781 335.38 316.145 333.854 315.119L333.296 315.948L332.737 316.778C334.018 317.64 335.398 319.094 336.549 320.476C337.687 321.842 338.543 323.066 338.779 323.411L339.604 322.846ZM333.296 315.948L333.854 315.119C333.371 314.794 332.728 314.562 332.05 314.384C331.355 314.201 330.542 314.055 329.663 313.937C327.906 313.7 325.817 313.566 323.748 313.492C319.607 313.346 315.464 313.442 314.046 313.484L314.075 314.484L314.104 315.483C315.508 315.442 319.601 315.347 323.678 315.491C325.718 315.563 327.733 315.695 329.396 315.919C330.228 316.031 330.954 316.164 331.542 316.319C332.148 316.478 332.534 316.641 332.737 316.778L333.296 315.948ZM339.604 322.846L339.088 323.702C340.263 324.411 343.222 325.98 346.558 326L346.564 325L346.57 324C343.784 323.983 341.207 322.644 340.12 321.989L339.604 322.846ZM346.564 325L346.558 326C349.067 326.015 351.576 326.011 353.1 326.006L353.096 325.006L353.093 324.006C351.572 324.011 349.071 324.015 346.57 324L346.564 325ZM345.574 366.974L346.248 367.713C348.886 365.307 359.802 355.515 367.06 351.368L366.564 350.5L366.068 349.632C358.581 353.91 347.497 363.867 344.9 366.235L345.574 366.974ZM366.564 350.5L367.06 351.368C369.968 349.706 373.898 349.22 377.462 349.229C380.997 349.237 384.022 349.731 385.02 349.914L385.2 348.93L385.38 347.946C384.32 347.753 381.167 347.238 377.467 347.229C373.797 347.219 369.438 347.706 366.068 349.632L366.564 350.5ZM385.261 349.061L384.941 350.008C385.361 350.15 386.535 350.628 387.465 351.722C388.357 352.771 389.111 354.487 388.581 357.316L389.564 357.5L390.547 357.684C391.183 354.29 390.289 351.956 388.989 350.427C387.727 348.942 386.166 348.311 385.581 348.114L385.261 349.061ZM389.564 357.5L388.581 357.316C387.564 362.738 382.911 363.747 381.665 363.922L381.804 364.912L381.944 365.903C383.373 365.702 389.276 364.463 390.547 357.684L389.564 357.5ZM354.5 384L355.289 384.614C356.18 383.47 359.889 379.127 364.007 374.884C366.064 372.764 368.207 370.687 370.139 369.054C371.105 368.237 372.006 367.542 372.807 367.01C373.621 366.471 374.28 366.136 374.77 365.992L374.488 365.033L374.206 364.073C373.433 364.3 372.579 364.762 371.702 365.343C370.814 365.932 369.848 366.68 368.847 367.527C366.845 369.22 364.651 371.349 362.572 373.491C358.418 377.771 354.658 382.169 353.711 383.386L354.5 384ZM374.488 365.033L374.77 365.992C375.677 365.725 377.084 365.638 378.478 365.642C379.842 365.647 381.081 365.738 381.593 365.782L381.677 364.785L381.761 363.789C381.222 363.743 379.924 363.647 378.485 363.642C377.076 363.638 375.414 363.718 374.206 364.073L374.488 365.033ZM385.2 348.93L384.294 349.354L384.355 349.485L385.261 349.061L386.167 348.637L386.105 348.506L385.2 348.93ZM381.804 364.912L382.511 364.205L382.384 364.078L381.677 364.785L380.97 365.492L381.097 365.619L381.804 364.912ZM399.193 372.462L398.298 372.909L398.331 372.973L399.225 372.526L400.119 372.079L400.087 372.014L399.193 372.462ZM399.84 387.441L399.12 388.134L399.187 388.204L399.907 387.51L400.628 386.817L400.56 386.747L399.84 387.441ZM312.664 459.3L311.683 459.496L311.943 460.795L312.924 460.599L313.904 460.403L313.645 459.104L312.664 459.3ZM275.672 566.5L276.379 567.207L276.792 566.794L276.084 566.087L275.377 565.38L274.965 565.793L275.672 566.5ZM224.703 535.311L223.996 536.018L224.034 536.056L224.741 535.349L225.448 534.642L225.41 534.604L224.703 535.311ZM159.47 537.903L158.777 538.624C161.022 540.785 172.119 550.658 188.513 551.499L188.564 550.5L188.615 549.501C172.947 548.698 162.293 539.232 160.164 537.183L159.47 537.903ZM159.564 527L158.931 526.226C156.459 528.248 155.832 530.627 156.036 532.741C156.234 534.785 157.198 536.519 157.796 537.428L158.632 536.879L159.467 536.329C158.942 535.531 158.179 534.12 158.027 532.548C157.882 531.047 158.282 529.341 160.197 527.774L159.564 527ZM159.47 537.903L160.244 537.27L159.406 536.245L158.632 536.879L157.858 537.512L158.696 538.536L159.47 537.903ZM169.346 526.326L170.053 527.033L170.076 527.01L169.369 526.303L168.662 525.596L168.639 525.619L169.346 526.326ZM215.29 522.251L214.441 522.78L214.467 522.821L215.316 522.292L216.165 521.764L216.14 521.723L215.29 522.251ZM233.14 491.748L232.432 492.455L232.455 492.477L233.162 491.77L233.869 491.063L233.847 491.041L233.14 491.748ZM280.217 395.325L279.51 396.032L279.565 396.087L280.272 395.38L280.979 394.672L280.924 394.618L280.217 395.325ZM294.537 355.64V356.64H294.569V355.64V354.64H294.537V355.64ZM302.897 300.945L302.008 300.486C300.434 303.541 296.461 311.993 294.579 322.829L295.564 323L296.549 323.171C298.384 312.608 302.263 304.357 303.786 301.403L302.897 300.945ZM302.897 300.945L303.872 301.165L304.462 298.56L303.487 298.34L302.511 298.119L301.922 300.724L302.897 300.945ZM339.95 360.775L339.242 361.481C340.174 362.416 342.533 364.837 344.8 367.607L345.574 366.974L346.348 366.34C344.021 363.498 341.61 361.024 340.658 360.069L339.95 360.775ZM339.95 360.775L339.503 359.881L339.439 359.912L339.886 360.807L340.334 361.701L340.397 361.669L339.95 360.775Z" fill="#242E33" mask="url(#path-17-inside-1_84_59)"/>
</g>
<defs>
<filter id="filter0_d_84_59" x="190.869" y="144.775" width="287.921" height="381.508" filterUnits="userSpaceOnUse" color-interpolation-filters="sRGB">
<feFlood flood-opacity="0" result="BackgroundImageFix"/>
<feColorMatrix in="SourceAlpha" type="matrix" values="0 0 0 0 0 0 0 0 0 0 0 0 0 0 0 0 0 0 127 0" result="hardAlpha"/>
<feOffset dx="2" dy="2"/>
<feGaussianBlur stdDeviation="2"/>
<feComposite in2="hardAlpha" operator="out"/>
<feColorMatrix type="matrix" values="0 0 0 0 0 0 0 0 0 0 0 0 0 0 0 0 0 0 0.5 0"/>
<feBlend mode="normal" in2="BackgroundImageFix" result="effect1_dropShadow_84_59"/>
<feBlend mode="normal" in="SourceGraphic" in2="effect1_dropShadow_84_59" result="shape"/>
</filter>
<filter id="filter1_d_84_59" x="187.669" y="216.687" width="290.418" height="241.4" filterUnits="userSpaceOnUse" color-interpolation-filters="sRGB">
<feFlood flood-opacity="0" result="BackgroundImageFix"/>
<feColorMatrix in="SourceAlpha" type="matrix" values="0 0 0 0 0 0 0 0 0 0 0 0 0 0 0 0 0 0 127 0" result="hardAlpha"/>
<feOffset dy="4"/>
<feGaussianBlur stdDeviation="2.5"/>
<feComposite in2="hardAlpha" operator="out"/>
<feColorMatrix type="matrix" values="0 0 0 0 0 0 0 0 0 0 0 0 0 0 0 0 0 0 0.9 0"/>
<feBlend mode="normal" in2="BackgroundImageFix" result="effect1_dropShadow_84_59"/>
<feBlend mode="normal" in="SourceGraphic" in2="effect1_dropShadow_84_59" result="shape"/>
</filter>
<filter id="filter2_d_84_59" x="154" y="295.34" width="259.085" height="278.16" filterUnits="userSpaceOnUse" color-interpolation-filters="sRGB">
<feFlood flood-opacity="0" result="BackgroundImageFix"/>
<feColorMatrix in="SourceAlpha" type="matrix" values="0 0 0 0 0 0 0 0 0 0 0 0 0 0 0 0 0 0 127 0" result="hardAlpha"/>
<feOffset dx="2" dy="2"/>
<feGaussianBlur stdDeviation="2.5"/>
<feComposite in2="hardAlpha" operator="out"/>
<feColorMatrix type="matrix" values="0 0 0 0 0 0 0 0 0 0 0 0 0 0 0 0 0 0 0.25 0"/>
<feBlend mode="normal" in2="BackgroundImageFix" result="effect1_dropShadow_84_59"/>
<feBlend mode="normal" in="SourceGraphic" in2="effect1_dropShadow_84_59" result="shape"/>
</filter>
<linearGradient id="paint0_linear_84_59" x1="333.501" y1="163.499" x2="333.501" y2="514.693" gradientUnits="userSpaceOnUse">
<stop stop-color="#8F7FFF"/>
<stop offset="1" stop-color="#6D55FF"/>
</linearGradient>
<linearGradient id="paint1_linear_84_59" x1="333.501" y1="163.499" x2="333.501" y2="514.693" gradientUnits="userSpaceOnUse">
<stop stop-color="#8F7FFF"/>
<stop offset="1" stop-color="#6D55FF"/>
</linearGradient>
</defs>
</svg>
